<svg xmlns="http://www.w3.org/2000/svg" xmlns:xlink="http://www.w3.org/1999/xlink" version="1.1" width="1080" height="1080" viewBox="0 0 1080 1080" xml:space="preserve">
<desc>Created with Fabric.js 5.2.4</desc>
<defs>
</defs>
<g transform="matrix(1 0 0 1 540 540)" id="3779df42-1834-4135-9a54-0bf2b24f7da1"  >
<rect style="stroke: none; stroke-width: 1; stroke-dasharray: none; stroke-linecap: butt; stroke-dashoffset: 0; stroke-linejoin: miter; stroke-miterlimit: 4; fill: rgb(255,255,255); fill-rule: nonzero; opacity: 1; visibility: hidden;" vector-effect="non-scaling-stroke"  x="-540" y="-540" rx="0" ry="0" width="1080" height="1080" />
</g>
<g transform="matrix(1 0 0 1 540 540)" id="2b646f77-a417-4cf8-b8e4-824cfae4d83f"  >
</g>
<g transform="matrix(8.71 0 0 8.71 540 540)"  >
<g style=""   >
		<g transform="matrix(1 0 0 1 -8.72 -38.3)"  >
<path style="stroke: none; stroke-width: 1; stroke-dasharray: none; stroke-linecap: butt; stroke-dashoffset: 0; stroke-linejoin: miter; stroke-miterlimit: 4; fill: rgb(255,255,255); fill-rule: nonzero; opacity: 1;" vector-effect="non-scaling-stroke"  transform=" translate(-53.28, -25.2)" d="M 2.5037 50.3883 C 2.53694 50.3951 2.57018 50.3986 2.60227 50.3986 C 2.81317 50.3986 3.00228 50.2519 3.04928 50.0387 C 9.28806 21.5761 34.9974 0.916963 64.1809 0.916963 C 78.5359 0.916963 92.5586 5.89837 103.669 14.9454 C 103.865 15.1047 104.154 15.076 104.314 14.8789 C 104.475 14.6829 104.445 14.394 104.248 14.2335 C 98.7057 9.72095 92.5024 6.20325 85.8132 3.78018 C 78.8901 1.27228 71.6117 0 64.1809 0 C 56.7501 0 49.4728 1.27114 42.5509 3.77903 C 35.8616 6.2021 29.6595 9.71865 24.1176 14.2313 C 18.6227 18.7049 13.944 24.0198 10.2096 30.0271 C 6.40423 36.1501 3.69345 42.8176 2.1541 49.8415 C 2.09908 50.0902 2.25612 50.3344 2.5037 50.3883 Z" stroke-linecap="round" />
</g>
		<g transform="matrix(1 0 0 1 -60.32 -0.71)"  >
<path style="stroke: none; stroke-width: 1; stroke-dasharray: none; stroke-linecap: butt; stroke-dashoffset: 0; stroke-linejoin: miter; stroke-miterlimit: 4; fill: rgb(255,255,255); fill-rule: nonzero; opacity: 1;" vector-effect="non-scaling-stroke"  transform=" translate(-1.68, -62.79)" d="M 1.68378 64.4762 C 2.6137 64.4762 3.36755 63.7224 3.36755 62.7925 C 3.36755 61.8625 2.6137 61.1087 1.68378 61.1087 C 0.753858 61.1087 0 61.8625 0 62.7925 C 0 63.7224 0.753858 64.4762 1.68378 64.4762 Z" stroke-linecap="round" />
</g>
		<g transform="matrix(1 0 0 1 58.21 21.8)"  >
<path style="stroke: none; stroke-width: 1; stroke-dasharray: none; stroke-linecap: butt; stroke-dashoffset: 0; stroke-linejoin: miter; stroke-miterlimit: 4; fill: rgb(255,255,255); fill-rule: nonzero; opacity: 1;" vector-effect="non-scaling-stroke"  transform=" translate(-120.21, -85.3)" d="M 120.208 85.2928 C 120.21 85.2892 120.212 85.2869 120.213 85.2833 C 120.208 85.2928 120.202 85.3022 120.198 85.3117 C 120.202 85.3057 120.206 85.2987 120.208 85.2928 Z" stroke-linecap="round" />
</g>
		<g transform="matrix(1 0 0 1 53.54 29.51)"  >
<path style="stroke: none; stroke-width: 1; stroke-dasharray: none; stroke-linecap: butt; stroke-dashoffset: 0; stroke-linejoin: miter; stroke-miterlimit: 4; fill: rgb(255,255,255); fill-rule: nonzero; opacity: 1;" vector-effect="non-scaling-stroke"  transform=" translate(-115.54, -93.01)" d="M 116.893 91.2757 C 117.642 90.1982 116.221 92.1044 115.926 92.5308 C 117.66 90.0297 115.443 93.0775 114.717 94.0988 C 114.717 94.0988 114.717 94.0976 114.718 94.0976 C 112.786 96.5161 115.126 93.8294 115.807 92.7061 C 116.184 92.2511 116.547 91.7617 116.893 91.2757 Z" stroke-linecap="round" />
</g>
		<g transform="matrix(1 0 0 1 54.01 28.14)"  >
<path style="stroke: none; stroke-width: 1; stroke-dasharray: none; stroke-linecap: butt; stroke-dashoffset: 0; stroke-linejoin: miter; stroke-miterlimit: 4; fill: rgb(255,255,255); fill-rule: nonzero; opacity: 1;" vector-effect="non-scaling-stroke"  transform=" translate(-116.01, -91.64)" d="M 116.632 90.8859 C 117.616 89.3168 115.662 92.2258 115.123 92.8608 C 115.65 92.2533 116.201 91.5851 116.632 90.8859 Z" stroke-linecap="round" />
</g>
		<g transform="matrix(1 0 0 1 53.11 29.38)"  >
<path style="stroke: none; stroke-width: 1; stroke-dasharray: none; stroke-linecap: butt; stroke-dashoffset: 0; stroke-linejoin: miter; stroke-miterlimit: 4; fill: rgb(255,255,255); fill-rule: nonzero; opacity: 1;" vector-effect="non-scaling-stroke"  transform=" translate(-115.11, -92.88)" d="M 115.122 92.8596 C 115.113 92.8702 115.104 92.8809 115.095 92.8915 C 115.104 92.882 115.113 92.8714 115.122 92.8596 Z" stroke-linecap="round" />
</g>
		<g transform="matrix(1 0 0 1 52.99 28.79)"  >
<path style="stroke: none; stroke-width: 1; stroke-dasharray: none; stroke-linecap: butt; stroke-dashoffset: 0; stroke-linejoin: miter; stroke-miterlimit: 4; fill: rgb(255,255,255); fill-rule: nonzero; opacity: 1;" vector-effect="non-scaling-stroke"  transform=" translate(-114.99, -92.29)" d="M 114.568 92.9306 C 114.568 92.9294 114.569 92.9283 114.569 92.9271 C 112.394 95.5233 115.573 92.0021 116.157 90.7482 C 116.268 90.5052 114.969 92.4595 114.568 92.9306 Z" stroke-linecap="round" />
</g>
		<g transform="matrix(1 0 0 1 54.5 28.29)"  >
<path style="stroke: none; stroke-width: 1; stroke-dasharray: none; stroke-linecap: butt; stroke-dashoffset: 0; stroke-linejoin: miter; stroke-miterlimit: 4; fill: rgb(255,255,255); fill-rule: nonzero; opacity: 1;" vector-effect="non-scaling-stroke"  transform=" translate(-116.5, -91.79)" d="M 117.763 89.8734 C 117.763 89.8723 117.763 89.8723 117.764 89.8711 C 117.726 89.9422 117.685 90.0133 117.645 90.0844 C 117.645 90.0844 117.646 90.0844 117.646 90.0832 C 117.04 91.124 116.39 92.1395 115.674 93.108 C 115.673 93.1103 115.67 93.1126 115.669 93.1149 C 115.669 93.1149 115.669 93.1149 115.669 93.1138 C 114.53 94.5947 115.757 93.0954 116.562 91.9653 C 116.145 92.5934 115.682 93.2834 115.485 93.5264 C 116.162 92.755 116.743 91.8277 117.287 90.9348 C 117.478 90.6001 117.319 90.8294 117.026 91.2672 C 117.046 91.2328 117.064 91.2008 117.079 91.1721 C 117.262 90.9016 117.331 90.7572 117.096 91.1045 C 117.212 90.9119 117.325 90.7193 117.434 90.5233 C 117.517 90.3835 117.871 89.7164 117.763 89.8734 Z" stroke-linecap="round" />
</g>
		<g transform="matrix(1 0 0 1 45.29 20.11)"  >
<path style="stroke: none; stroke-width: 1; stroke-dasharray: none; stroke-linecap: butt; stroke-dashoffset: 0; stroke-linejoin: miter; stroke-miterlimit: 4; fill: rgb(255,255,255); fill-rule: nonzero; opacity: 1;" vector-effect="non-scaling-stroke"  transform=" translate(-107.29, -83.61)" d="M 107.295 83.6082 C 107.294 83.6118 107.294 83.6141 107.293 83.6177 C 107.293 83.6153 107.294 83.6141 107.294 83.6117 C 107.294 83.6117 107.295 83.6094 107.295 83.6082 Z" stroke-linecap="round" />
</g>
		<g transform="matrix(1 0 0 1 58.9 7.11)"  >
<path style="stroke: none; stroke-width: 1; stroke-dasharray: none; stroke-linecap: butt; stroke-dashoffset: 0; stroke-linejoin: miter; stroke-miterlimit: 4; fill: rgb(255,255,255); fill-rule: nonzero; opacity: 1;" vector-effect="non-scaling-stroke"  transform=" translate(-120.9, -70.61)" d="M 120.906 70.5932 C 120.906 70.5943 120.906 70.5943 120.906 70.5955 C 120.904 70.6069 120.902 70.6184 120.901 70.6298 C 120.902 70.6172 120.904 70.6058 120.906 70.5932 Z" stroke-linecap="round" />
</g>
		<g transform="matrix(1 0 0 1 0.48 31.01)"  >
<path style="stroke: none; stroke-width: 1; stroke-dasharray: none; stroke-linecap: butt; stroke-dashoffset: 0; stroke-linejoin: miter; stroke-miterlimit: 4; fill: rgb(255,255,255); fill-rule: nonzero; opacity: 1;" vector-effect="non-scaling-stroke"  transform=" translate(-62.48, -94.51)" d="M 123.117 77.2112 C 123.118 77.2124 123.118 77.2124 123.118 77.2124 C 123.113 77.17 123.105 77.2513 123.105 77.272 C 123.105 77.272 123.105 77.272 123.103 77.272 C 123.105 77.2066 123.089 77.3396 123.083 77.3728 C 123.07 77.3866 123.071 77.4141 123.063 77.4313 C 123.068 77.4118 123.085 77.3293 123.068 77.3625 C 123.054 77.4198 123.028 77.5058 123.014 77.5551 C 122.991 77.6307 122.946 77.6949 122.906 77.7626 C 121.556 79.4268 120.577 81.3226 119.642 83.2425 C 119.65 83.2265 119.659 83.2116 119.667 83.1955 C 117.885 87.3826 114.994 90.8281 112.292 94.418 C 110.66 96.7666 109.991 99.6688 108.587 102.078 C 109.018 99.8992 108.766 97.6709 109.001 95.4783 C 109.049 94.9602 109.168 94.4169 109.434 93.9481 C 111.98 90.5679 112.843 86.531 114.346 82.6614 C 117.073 79.0039 119.773 75.0919 120.903 70.5942 C 121.424 67.8422 121.617 64.7405 121.196 62.071 C 121.193 62.0538 121.189 62.0366 121.186 62.0194 C 121.186 62.0149 121.18 62.0114 121.178 62.016 C 121.181 62.228 121.256 63.0178 121.202 63.4396 C 121.202 63.4384 121.2 63.4602 121.2 63.4591 C 121.185 63.6814 121.173 63.8006 121.134 64.0196 C 121.119 64.1032 121.093 64.2316 121.083 64.2717 C 120.946 64.956 120.826 65.646 120.593 66.3062 C 118.498 72.4625 111.299 76.0432 107.475 81.3238 C 106.035 82.8861 106.4 85.7871 106.51 87.9798 C 106.321 90.7513 106.845 93.3372 107.982 95.8737 C 107.98 95.8714 107.98 95.868 107.979 95.8657 C 108.195 96.3792 108.489 96.8801 108.476 97.4566 C 108.474 97.4463 108.474 97.4383 108.473 97.4291 C 108.478 97.5139 108.486 97.5976 108.491 97.6824 C 108.491 97.679 108.491 97.6755 108.489 97.6721 C 108.521 99.1289 108.392 100.638 108.117 102.064 C 108.123 102.038 108.129 102.012 108.133 101.985 C 107.533 106.86 99.5352 114.725 99.4756 114.806 C 100.002 114.079 100.748 112.182 101.077 111.595 C 101.073 111.602 101.07 111.608 101.067 111.613 C 101.088 111.573 101.122 111.486 101.143 111.445 C 101.142 111.447 101.141 111.449 101.14 111.452 C 101.255 111.24 101.377 110.962 101.485 110.748 C 101.481 110.753 101.478 110.758 101.475 110.764 C 101.515 110.693 101.551 110.621 101.589 110.55 C 101.588 110.551 101.588 110.553 101.587 110.554 C 101.598 110.535 101.609 110.514 101.62 110.494 C 101.62 110.495 101.619 110.496 101.619 110.496 C 102.063 109.634 102.828 107.904 102.827 107.909 C 104.847 103.684 104.238 100.382 103.396 96.7758 C 103.284 95.9539 102.831 93.8587 102.457 91.7726 C 102.004 89.2475 102.428 87.1672 101.249 85.6393 C 101.409 85.8467 101.711 87.1385 101.72 88.9403 C 101.742 93.1824 101.017 100.329 101.477 103.793 C 101.681 105.333 101.55 107.017 101.544 108.537 C 101.543 108.927 101.574 109.353 101.461 109.731 C 101.167 110.708 100.14 113.374 98.7432 115.029 C 98.2056 115.665 97.8102 116.042 97.174 116.558 C 96.6823 116.957 96.1768 117.279 95.5694 117.661 C 95.5441 117.67 95.5201 117.68 95.4971 117.694 C 86.0226 123.182 75.1921 126.082 64.1794 126.082 C 34.2761 126.082 8.43955 104.811 2.74635 75.5034 C 2.69821 75.2546 2.45865 75.0919 2.20878 75.1412 C 1.96005 75.1893 1.79843 75.43 1.84657 75.6787 C 4.61695 89.9421 12.3263 102.949 23.5545 112.306 C 29.1388 116.959 35.4131 120.588 42.2021 123.094 C 49.2283 125.686 56.6225 127 64.1806 127 C 75.3549 127 86.3435 124.057 95.9579 118.488 C 95.9831 118.473 96.0049 118.457 96.0255 118.439 C 96.688 118.046 97.5603 117.328 98.1586 116.801 C 98.8727 116.173 99.3621 115.737 100.012 115.06 C 101.612 113.392 102.832 112.04 104.201 110.348 C 106.127 107.97 107.784 105.262 108.996 102.151 C 114.775 95.2043 117.127 96.5007 119.908 86.5723 L 119.907 86.5734 C 120.001 86.4026 120.116 86.2456 120.205 86.0714 C 120.204 86.0748 120.201 86.0771 120.2 86.0805 C 121.644 84.1652 122 81.7891 122.219 79.4681 C 122.308 79.1781 122.4 78.8893 122.573 78.6382 C 122.57 78.6405 122.569 78.6428 122.568 78.6451 C 122.756 78.2554 123.022 77.805 123.113 77.4164 C 123.128 77.3488 123.116 77.28 123.117 77.2112 Z M 121.297 63.9886 C 121.296 64.0264 121.296 64.0643 121.294 64.1021 C 121.294 64.1009 121.295 64.0998 121.295 64.0986 C 121.292 64.133 121.288 64.1663 121.282 64.2007 C 121.287 64.1307 121.292 64.0597 121.297 63.9886 Z M 121.273 65.0821 C 121.274 65.16 121.275 65.2368 121.275 65.3148 C 121.274 65.2976 121.27 65.2804 121.267 65.262 C 121.268 65.2024 121.271 65.1417 121.273 65.0821 Z M 121.166 64.109 C 121.166 64.1101 121.166 64.1101 121.166 64.1113 C 121.166 64.1101 121.166 64.109 121.166 64.109 Z M 101.98 108.422 C 101.989 108.389 102 108.356 102.009 108.321 C 102.001 108.355 101.994 108.39 101.98 108.422 Z M 101.92 107.207 C 101.898 107.393 101.865 107.576 101.808 107.755 C 101.848 107.573 101.846 107.379 101.92 107.207 Z M 101.829 92.4488 C 101.831 92.4534 101.833 92.458 101.836 92.4626 C 101.836 92.4603 101.834 92.4592 101.832 92.4592 C 101.831 92.4592 101.83 92.4615 101.829 92.4615 C 101.83 92.458 101.83 92.4534 101.829 92.4488 Z M 101.891 107.238 C 101.973 106.713 102.036 106.183 102.11 105.655 C 102.134 105.483 102.162 105.313 102.18 105.138 C 102.138 105.828 102.021 106.554 101.891 107.238 Z M 102.629 104.031 C 102.523 104.858 102.421 105.69 102.169 106.486 C 102.367 105.676 102.5 104.854 102.629 104.031 Z M 102.337 101.11 C 102.502 102.369 102.394 103.642 102.244 104.899 C 102.229 104.994 102.216 105.09 102.201 105.185 C 102.275 103.836 102.361 102.469 102.337 101.11 Z M 102.247 97.1804 C 102.22 97.0692 102.222 96.934 102.129 96.8709 C 102.149 96.6061 102.162 96.3402 102.167 96.0754 C 102.182 96.229 102.198 96.3815 102.213 96.5339 C 102.138 96.3253 102.306 97.0142 102.247 97.1804 Z M 102.138 96.8869 C 102.145 96.8961 102.153 96.9053 102.16 96.9133 C 102.181 96.9511 102.191 96.9935 102.199 97.036 C 102.199 97.036 102.199 97.0359 102.199 97.0348 C 102.366 98.8619 102.708 100.699 102.502 102.534 C 102.521 101.601 102.541 100.034 102.46 101.868 C 102.424 101.278 102.396 100.685 102.358 100.095 C 102.309 99.0223 102.181 97.9506 102.127 96.8801 C 102.13 96.8824 102.134 96.8847 102.137 96.8881 C 102.139 96.8881 102.139 96.8881 102.138 96.8869 Z M 102.388 98.0446 C 102.389 98.0973 102.39 98.1489 102.392 98.2016 C 102.364 97.8222 102.249 97.4452 102.269 97.0669 C 102.304 97.3936 102.342 97.7191 102.388 98.0446 Z M 102.385 95.6261 C 102.451 96.0078 102.523 96.3883 102.584 96.77 C 102.589 97.2148 102.573 97.6584 102.568 98.1031 C 102.384 97.2572 102.409 96.3838 102.366 95.5218 C 102.373 95.594 102.385 95.7774 102.385 95.6261 Z M 102.375 94.653 C 102.443 95.0416 102.534 95.429 102.549 95.8244 C 102.489 95.5207 102.434 95.2158 102.388 94.9109 C 102.371 94.8261 102.379 94.739 102.375 94.653 Z M 102.692 97.444 C 102.831 98.3381 102.845 99.2447 102.903 100.146 C 102.922 100.562 102.942 100.978 102.959 101.393 C 102.943 101.283 102.937 101.158 102.921 101.061 C 102.861 100.5 102.788 99.9393 102.707 99.3799 C 103.184 102.148 102.459 98.212 102.638 97.1001 C 102.674 97.2618 102.698 97.9117 102.692 97.444 Z M 103.046 104.954 C 103.061 104.714 103.071 104.476 103.118 104.24 C 103.122 104.222 103.123 104.202 103.126 104.184 C 103.104 104.44 103.107 104.702 103.046 104.954 Z M 103.177 105.512 C 103.173 105.53 103.171 105.549 103.168 105.566 C 103.153 105.643 103.138 105.718 103.121 105.794 C 103.139 105.7 103.157 105.606 103.177 105.512 Z M 103.051 106.208 C 103.048 106.216 103.047 106.225 103.046 106.233 C 103.046 106.232 103.047 106.231 103.047 106.23 C 103.035 106.277 103.024 106.325 103.008 106.371 C 103.007 106.376 103.004 106.381 103.002 106.387 C 103.011 106.325 103.028 106.265 103.051 106.208 Z M 102.829 104.725 C 102.874 104.155 102.967 103.592 103.015 103.023 C 103.032 103.431 102.939 103.834 102.9 104.24 C 102.9 104.236 102.902 104.232 102.902 104.227 C 102.876 104.392 102.855 104.56 102.829 104.725 Z M 102.694 104.746 C 102.804 103.603 102.625 105.032 102.559 105.492 C 102.563 105.121 102.827 103.62 102.759 103.834 C 102.802 103.471 102.844 102.707 102.859 102.209 C 102.878 103.054 102.832 103.899 102.694 104.746 Z M 102.645 105.81 C 102.58 106.255 102.528 106.711 102.365 107.133 C 102.467 106.704 102.557 106.274 102.635 105.842 C 102.638 105.832 102.641 105.822 102.645 105.81 Z M 102.694 103.074 C 102.679 103.176 102.665 103.278 102.651 103.379 C 102.677 102.978 102.696 102.577 102.703 102.174 C 102.75 102.479 102.749 102.778 102.692 103.082 C 102.693 103.08 102.693 103.078 102.694 103.074 Z M 102.921 103.458 C 102.96 103.144 102.941 103.178 102.899 103.467 C 102.921 102.878 102.919 102.289 102.922 101.7 C 103.023 102.283 103.04 102.876 102.921 103.458 Z M 102.786 100.9 C 102.762 100.744 102.754 100.831 102.802 101.44 C 102.801 101.439 102.802 101.436 102.802 101.435 C 102.808 101.782 102.796 102.131 102.769 102.478 C 102.699 101.929 102.692 99.4166 102.661 100.825 C 102.622 99.9611 102.48 99.1014 102.416 98.2418 C 102.573 99.1243 102.707 100.011 102.786 100.9 Z M 102.331 105.296 C 102.342 105.184 102.354 105.073 102.366 104.963 C 102.519 103.754 102.597 102.538 102.618 101.319 C 102.655 102.644 102.518 103.983 102.331 105.296 Z M 102.356 106.303 C 102.332 106.543 102.26 106.771 102.201 107.003 C 102.24 106.849 102.275 106.695 102.308 106.537 C 102.324 106.459 102.34 106.381 102.356 106.303 Z M 102.212 108.464 C 102.208 108.475 102.205 108.487 102.2 108.498 C 102.197 108.499 102.192 108.497 102.189 108.499 C 102.199 108.477 102.209 108.456 102.22 108.434 C 102.216 108.444 102.214 108.453 102.212 108.464 Z M 102.238 108.289 C 102.264 108.189 102.303 108.09 102.337 107.991 C 102.314 108.093 102.275 108.191 102.238 108.289 Z M 102.254 107.606 C 102.271 107.539 102.287 107.471 102.303 107.403 C 102.31 107.366 102.322 107.33 102.34 107.296 C 102.312 107.399 102.287 107.504 102.254 107.606 Z M 102.35 107.939 C 102.351 107.931 102.348 107.923 102.348 107.915 C 102.362 107.866 102.376 107.819 102.39 107.771 C 102.378 107.827 102.366 107.884 102.35 107.939 Z M 102.58 107.257 C 102.572 107.286 102.561 107.316 102.553 107.346 C 102.59 107.203 102.627 107.06 102.663 106.915 C 102.665 106.913 102.668 106.912 102.67 106.909 C 102.64 107.026 102.609 107.141 102.58 107.257 Z M 102.674 106.893 C 102.671 106.896 102.669 106.897 102.667 106.899 C 102.674 106.874 102.679 106.847 102.686 106.822 C 102.685 106.846 102.678 106.87 102.674 106.893 Z M 102.664 106.433 C 102.684 106.329 102.712 106.231 102.737 106.129 C 102.723 106.233 102.694 106.333 102.664 106.433 Z M 102.745 107.003 C 102.766 106.94 102.766 106.87 102.802 106.813 C 102.802 106.825 102.803 106.836 102.804 106.847 C 102.797 106.905 102.771 106.954 102.745 107.003 Z M 102.814 106.798 C 102.814 106.796 102.813 106.792 102.813 106.79 C 102.814 106.787 102.817 106.784 102.818 106.781 C 102.817 106.787 102.816 106.792 102.814 106.798 Z M 102.818 106.739 C 102.816 106.745 102.812 106.751 102.81 106.758 C 102.81 106.69 102.841 106.625 102.864 106.562 C 102.849 106.622 102.845 106.684 102.818 106.739 Z M 102.865 106.774 C 102.888 106.69 102.899 106.604 102.936 106.525 C 102.937 106.527 102.937 106.528 102.938 106.527 C 102.934 106.615 102.918 106.701 102.865 106.774 Z M 103.008 104.928 C 103.01 104.913 103.013 104.898 103.015 104.883 C 103.02 105.062 102.99 105.236 102.943 105.409 C 102.962 105.249 102.982 105.087 103.008 104.928 Z M 102.961 106.6 C 102.967 106.565 102.973 106.531 102.978 106.497 C 102.98 106.489 102.982 106.481 102.983 106.473 C 103.02 106.449 103.045 106.42 103.066 106.383 C 103.036 106.459 103.002 106.531 102.961 106.6 Z M 103.721 102.855 C 103.576 104.047 103.469 105.308 103.023 106.426 C 103.011 106.438 102.998 106.45 102.986 106.461 C 103.695 104.419 103.585 102.24 103.561 100.11 C 103.683 101.018 103.775 101.939 103.721 102.855 Z M 102.867 96.0835 C 102.867 96.0812 102.867 96.0777 102.867 96.0743 C 102.946 97.2308 103.01 98.2773 102.958 96.4892 C 103.037 96.9821 103.165 97.4635 103.273 97.9506 C 103.296 98.0561 103.317 98.1627 103.338 98.267 C 103.337 98.2624 103.336 98.2567 103.335 98.2521 C 103.479 98.8871 103.474 99.5347 103.463 100.182 C 103.353 99.1782 103.153 98.1833 103.037 97.1827 C 103.203 99.2172 103.699 101.239 103.313 103.298 C 103.304 102.472 103.283 104.165 103.155 104.471 C 103.166 103.632 103.499 100.517 103.24 102.635 C 103.245 102.397 103.325 101.09 103.262 101.747 C 103.266 100.836 103.209 99.1129 103.096 98.6166 L 103.095 98.6154 C 103.165 99.8625 103.21 101.126 103.103 102.373 C 103.103 102.153 103.098 101.933 103.092 101.714 C 103.151 100.118 102.772 96.6864 102.543 94.4902 C 102.722 95.0049 102.823 95.539 102.867 96.0835 Z M 102.332 93.634 C 102.378 93.908 102.397 94.1865 102.431 94.4627 L 102.431 94.4616 C 102.431 94.4662 102.432 94.4696 102.432 94.4742 C 102.443 94.5876 102.455 94.7023 102.466 94.8158 C 102.369 94.465 102.351 94.1086 102.332 93.7464 C 102.348 93.7922 102.333 93.6638 102.332 93.634 Z M 102.285 96.0571 C 102.233 95.5264 102.168 94.9969 102.15 94.465 C 102.2 94.9774 102.239 95.4897 102.287 96.0009 C 102.286 96.0193 102.286 96.0376 102.285 96.0571 Z M 102.221 93.8839 C 102.194 93.728 102.168 93.5721 102.141 93.4174 C 102.151 93.446 102.155 93.4781 102.162 93.5068 C 102.181 93.6019 102.197 93.6971 102.214 93.7922 C 102.216 93.822 102.218 93.8529 102.221 93.8839 Z M 102.147 92.9658 C 102.166 93.1813 102.182 93.3967 102.2 93.6122 C 102.177 93.5435 102.182 93.4483 102.137 93.3979 C 102.115 93.2478 102.114 93.0942 102.104 92.9417 C 102.116 92.952 102.129 92.9658 102.147 92.9658 Z M 102.009 94.998 C 102.03 95.1401 102.013 94.4983 102.021 94.3733 C 102.061 94.7917 102.068 96.9145 102.098 96.2657 C 102.099 96.4067 102.095 96.5465 102.092 96.6875 C 102.092 96.6909 102.092 96.6944 102.092 96.699 C 102.035 96.1328 101.956 95.5688 102.009 94.998 Z M 102.008 96.284 C 102.042 96.5614 102.066 97.6194 102.082 97.5059 C 102.186 99.1152 102.327 100.718 102.256 102.331 C 102.22 100.881 102.091 99.4384 101.989 97.9919 C 101.95 97.4245 102.033 96.8537 102.008 96.284 Z M 101.94 97.1414 C 101.94 97.1758 101.939 97.2113 101.939 97.2457 C 101.925 97.0325 101.915 96.8205 101.904 96.6073 C 101.914 96.6107 101.924 96.6096 101.934 96.6096 C 101.938 96.7861 101.94 96.9637 101.94 97.1414 Z M 101.928 96.2863 C 101.93 96.3459 101.931 96.4067 101.932 96.4663 C 101.926 96.4663 101.92 96.464 101.915 96.4651 C 101.919 96.4055 101.924 96.3459 101.928 96.2863 Z M 101.895 96.0823 C 101.893 96.1499 101.891 96.2187 101.888 96.2863 C 101.86 95.9471 101.879 95.6101 101.908 95.272 C 101.92 95.5413 101.907 95.813 101.895 96.0823 Z M 101.895 93.7933 C 101.888 93.6375 101.884 93.4816 101.876 93.3257 C 101.891 93.4816 101.9 93.6375 101.895 93.7933 Z M 101.839 92.4947 C 101.838 92.4844 101.838 92.4752 101.837 92.4649 C 101.843 92.4741 101.839 92.4844 101.839 92.4947 Z M 101.829 92.2483 C 101.831 92.3124 101.834 92.3766 101.838 92.4408 C 101.834 92.4351 101.832 92.4282 101.828 92.4225 C 101.824 92.364 101.826 92.3067 101.829 92.2483 Z M 101.808 92.811 C 101.821 93.2626 101.809 93.7142 101.814 94.1659 C 101.808 93.9251 101.801 93.6833 101.8 93.4426 C 101.798 93.2328 101.798 93.0208 101.808 92.811 Z M 101.974 107.776 C 101.891 108.049 101.822 108.326 101.731 108.597 C 101.805 108.32 101.873 108.043 101.974 107.776 Z M 108.489 88.1368 C 108.492 87.8904 108.54 87.6474 108.566 87.4021 C 108.675 87.064 108.81 86.7339 108.928 86.3992 C 109.022 86.1459 109.112 85.8914 109.202 85.6381 C 109.077 86.0232 108.964 86.4141 108.865 86.8072 C 108.849 86.7155 108.645 87.8457 108.489 88.1368 Z M 108.528 88.193 C 108.515 88.2652 108.499 88.3363 108.488 88.4085 C 108.488 88.3741 108.489 88.3397 108.488 88.3053 C 108.487 88.2652 108.516 88.2308 108.528 88.193 Z M 108.672 86.7476 C 108.825 86.2662 109.004 85.7917 109.171 85.3149 C 109.011 85.794 108.838 86.2697 108.672 86.7476 Z M 109.268 85.8398 C 109.179 86.131 109.096 86.4244 109.007 86.7155 C 109.089 86.421 109.174 86.1298 109.268 85.8398 Z M 108.876 87.5121 C 108.856 87.5935 108.837 87.6738 108.818 87.7551 C 108.819 87.7334 108.821 87.7104 108.822 87.6887 C 108.841 87.6302 108.858 87.5717 108.876 87.5121 Z M 108.706 88.0669 C 108.691 88.193 108.672 88.3179 108.657 88.444 C 108.653 88.4876 108.641 88.53 108.633 88.5724 C 108.626 88.3993 108.64 88.2308 108.706 88.0669 Z M 108.668 92.5784 C 108.668 92.5807 108.668 92.5829 108.667 92.5864 C 108.688 92.489 108.707 92.3927 108.728 92.2964 C 108.759 92.1772 108.79 92.0603 108.819 91.9411 C 108.759 92.3766 108.696 92.811 108.61 93.242 C 108.607 93.0185 108.63 92.7973 108.668 92.5784 Z M 108.764 94.6358 C 108.798 94.3642 108.81 94.0868 108.892 93.8231 C 108.947 93.6134 109.002 93.4059 109.059 93.1962 C 108.966 93.6764 108.841 94.1521 108.764 94.6358 Z M 109.629 89.3323 C 109.871 87.9477 109.542 89.6659 109.331 90.208 C 109.534 88.7775 110.172 87.4491 110.621 86.0851 C 110.65 86.0072 110.679 85.9292 110.707 85.8513 C 110.322 87.0044 109.973 88.1678 109.629 89.3323 Z M 110.166 88.7352 C 110.346 87.8629 110.045 89.1615 109.903 89.4779 C 109.973 89.1638 110.034 88.8486 110.095 88.5334 C 110.136 88.436 110.178 88.3386 110.219 88.2411 C 110.218 88.2423 110.218 88.2434 110.217 88.2446 C 110.663 87.2428 111.072 86.2215 111.426 85.1842 C 111.091 86.3969 110.593 87.5534 110.166 88.7352 Z M 111.567 84.7865 C 111.629 84.6145 111.69 84.4415 111.75 84.2696 C 111.596 84.877 111.426 85.4754 111.235 86.0725 C 111.366 85.6496 111.465 85.2174 111.567 84.7865 Z M 109.538 90.5324 C 109.509 90.6264 109.483 90.7204 109.454 90.8144 C 109.537 90.4854 109.617 90.1553 109.695 89.8252 C 109.662 90.0705 109.603 90.3089 109.532 90.545 C 109.535 90.5404 109.537 90.5358 109.538 90.5324 Z M 109.928 90.0315 C 109.863 90.3364 109.785 90.639 109.686 90.9347 C 109.769 90.6344 109.82 90.3238 109.928 90.0315 Z M 109.74 89.7988 C 109.769 89.4492 109.837 89.1088 109.99 88.7913 C 109.908 89.1283 109.83 89.4641 109.74 89.7988 Z M 109.351 91.4803 C 109.294 91.7393 109.255 92.0018 109.214 92.2643 C 109.229 92.0993 109.242 91.9342 109.256 91.7692 C 109.288 91.6729 109.32 91.5766 109.351 91.4803 Z M 109.187 90.7525 C 109.193 90.6951 109.198 90.6378 109.213 90.5817 C 109.222 90.5358 109.232 90.49 109.242 90.4441 C 109.239 90.4659 109.236 90.4877 109.232 90.5095 C 109.232 90.5072 109.232 90.5049 109.232 90.5026 C 109.217 90.5863 109.209 90.6711 109.187 90.7525 Z M 109.293 88.7397 C 109.285 88.7764 109.269 88.8108 109.258 88.8463 C 109.27 88.797 109.285 88.7478 109.297 88.6985 C 109.296 88.7122 109.295 88.726 109.293 88.7397 Z M 109.262 89.0882 C 109.233 89.5363 109.153 89.9788 109.064 90.4178 C 109.081 90.1026 109.011 90.8017 108.971 90.9187 C 109.001 90.3387 109.05 89.7427 109.226 89.1868 C 109.237 89.1535 109.25 89.1203 109.262 89.0882 Z M 109.037 91.0436 C 109.017 91.1949 108.994 91.345 108.972 91.4963 C 108.981 91.4069 108.988 91.3187 108.996 91.2304 C 109.003 91.1663 109.023 91.1055 109.037 91.0436 Z M 109.012 92.5394 C 109.011 92.5428 109.01 92.544 109.009 92.5474 C 109.081 92.3148 109.152 92.0809 109.23 91.8494 C 109.182 92.4259 109.02 92.9784 108.888 93.5377 C 108.926 93.2053 108.957 92.8707 109.012 92.5394 Z M 108.842 91.4803 C 108.86 91.3749 108.878 91.2694 108.895 91.1651 C 108.916 91.0425 108.929 90.9187 108.947 90.7949 C 108.933 91.0264 108.903 91.2557 108.842 91.4803 Z M 109.266 93.438 C 109.271 93.4208 109.276 93.4036 109.28 93.3864 C 109.285 93.367 109.292 93.3486 109.297 93.3303 C 109.293 93.3681 109.289 93.4059 109.266 93.438 Z M 109.073 93.8048 C 109.225 93.2501 109.343 92.6861 109.506 92.1348 C 109.472 92.3296 109.427 92.5199 109.373 92.7102 C 109.272 93.0747 109.176 93.4449 109.073 93.8048 Z M 109.417 93.1492 C 109.913 91.0287 110.619 88.9541 111.331 86.8978 C 111.15 87.5729 110.979 88.248 110.788 88.9208 C 111.045 87.6291 110.577 89.7828 110.363 90.2504 C 110.391 90.0991 110.579 89.4297 110.526 89.5432 C 110.722 88.6904 110.373 90.0178 110.279 90.3421 C 110.279 90.3398 110.279 90.3387 110.28 90.3375 C 110.049 91.1032 109.798 91.8632 109.578 92.6322 C 109.579 92.63 109.579 92.6277 109.581 92.6265 C 109.529 92.7996 109.475 92.975 109.417 93.1492 Z M 109.803 92.4832 C 109.814 92.4408 109.834 92.4042 109.866 92.3744 C 109.845 92.411 109.824 92.4466 109.803 92.4832 Z M 109.841 92.3801 C 109.85 92.356 109.858 92.3319 109.867 92.3079 C 109.887 92.254 109.906 92.199 109.926 92.1451 C 109.897 92.2231 109.9 92.3193 109.841 92.3801 Z M 111.236 88.3099 C 111.262 88.2274 111.288 88.1448 111.315 88.0623 C 110.926 89.424 110.64 90.8602 110.007 92.1291 C 110.398 90.8499 110.844 89.5891 111.236 88.3099 Z M 111.002 90.2447 C 111.108 90.0006 111.228 89.7633 111.329 89.518 C 111.137 90.0464 110.945 90.5794 110.636 91.0493 C 110.644 91.0287 110.652 91.0069 110.66 90.9874 C 110.785 90.7433 110.898 90.4946 111.003 90.2413 C 111.003 90.2424 111.003 90.2435 111.002 90.2447 Z M 120.372 71.5352 C 120.259 71.9009 120.11 72.2573 119.957 72.608 C 120.17 72.0544 120.371 71.4974 120.539 70.93 C 120.491 71.1329 120.435 71.3346 120.372 71.5352 Z M 121.006 66.5515 C 120.994 66.6226 120.981 66.6925 120.959 66.7613 C 120.945 66.8106 120.931 66.861 120.918 66.9103 C 120.949 66.7911 120.977 66.6707 121.006 66.5515 Z M 120.929 68.382 C 120.91 68.476 120.89 68.5711 120.868 68.6651 C 120.868 68.6663 120.867 68.6686 120.867 68.6697 C 120.89 68.5746 120.91 68.4783 120.929 68.382 Z M 120.847 68.7614 C 120.343 71.4355 119 73.8815 117.666 76.1945 C 118.893 74.2792 120.056 72.2871 120.656 70.0773 C 119.695 73.9044 117.744 77.562 115.249 80.6131 C 114.007 81.835 113.432 83.489 112.903 85.1097 C 113.394 82.6385 112.016 88.7959 111.384 89.7484 C 111.663 89.1352 112.496 86.1378 111.967 87.7815 C 112.274 86.0221 112.654 84.2524 113.368 82.6076 C 113.366 82.6098 113.365 82.6121 113.365 82.6144 C 115.001 79.5059 112.816 83.1978 112.485 84.7681 C 112.819 82.5881 111.742 88.5964 111.146 89.6876 C 111.144 89.6922 111.143 89.6957 111.141 89.7002 C 111.456 88.7076 111.682 87.6841 111.852 86.6605 C 111.486 88.1987 111.104 89.761 110.476 91.2224 C 110.793 90.3146 112.123 85.622 111.574 87.2256 C 111.844 86.3934 112.023 85.5315 112.2 84.6787 C 111.872 85.9281 111.541 87.1992 111.056 88.405 C 111.437 86.5654 112.102 84.8048 112.565 82.9904 C 112.311 83.7847 112.069 84.5962 111.786 85.386 C 112.137 84.0334 111.511 86.3098 111.252 86.7901 C 111.886 84.9905 110.232 89.3094 109.942 90.1243 C 110.497 88.499 111.966 84.3131 111.86 83.9073 C 111.919 83.6575 111.722 84.3085 111.657 84.4185 C 111.715 84.1904 111.102 85.8891 110.911 86.3224 C 110.912 86.3178 110.915 86.3144 110.916 86.3098 C 110.735 86.7293 110.561 87.1545 110.375 87.5729 C 110.983 85.661 111.537 83.7285 112.38 81.9026 C 112.378 81.9038 112.378 81.9049 112.377 81.9061 C 113.313 79.7569 111.834 82.8769 111.047 84.9859 C 111.311 84.1939 111.527 83.583 111.15 84.5366 C 110.784 85.4111 109.976 87.4101 109.589 88.7042 C 109.673 88.3156 109.797 87.9374 109.905 87.5557 L 109.905 87.5569 C 109.959 87.3758 110.013 87.1947 110.065 87.0147 C 110.065 87.0158 110.064 87.0182 110.064 87.0193 C 110.324 86.1551 111.004 84.0094 110.328 85.9762 C 110.751 84.6547 109.599 87.864 109.39 88.4658 C 110.997 81.6264 114.847 75.7934 119.208 70.428 C 118.754 71.3175 118.26 72.1874 117.76 73.0516 C 118.543 71.8791 119.283 70.5976 119.886 69.299 C 119.758 69.7655 118.519 71.9662 119.085 71.0229 C 118.421 72.3467 119.856 69.746 120.181 69.0067 C 119.366 70.9701 118.208 72.8006 117.079 74.5727 C 117.672 73.8207 118.272 73.0711 118.787 72.2631 C 117.76 74.3434 119.739 70.6836 120.074 69.8434 C 119.681 71.4905 116.538 76.2415 118.856 72.7043 C 118.474 73.5101 118.072 74.3079 117.676 75.1068 C 118.3 74.1107 118.916 73.0298 119.432 71.949 C 119.394 72.0476 119.352 72.1438 119.319 72.2413 C 118.098 75.03 119.232 72.7273 119.84 71.2074 C 120.017 70.8819 120.324 70.0028 120.523 69.4824 C 120.224 70.5185 119.836 71.5272 119.501 72.5507 C 120.042 71.3564 120.56 70.0669 120.847 68.7614 Z M 109.341 89.1501 C 109.327 88.7523 109.523 88.4027 109.638 88.0302 C 109.683 87.8996 109.73 87.7678 109.775 87.6359 C 109.617 88.1368 109.457 88.6377 109.341 89.1501 Z M 118.742 70.6011 C 118.765 70.5644 118.788 70.5277 118.811 70.4899 C 118.832 70.4601 118.851 70.4291 118.872 70.3993 C 118.828 70.4658 118.786 70.5334 118.742 70.6011 Z M 120.506 67.9166 C 120.474 68.0622 120.421 68.2009 120.363 68.3384 C 120.417 68.1998 120.465 68.0599 120.506 67.9166 Z M 119.92 68.1344 C 119.918 68.1402 119.915 68.1459 119.914 68.1505 C 119.94 68.0978 119.967 68.0473 119.995 67.9946 C 119.97 68.0553 119.945 68.1161 119.919 68.1768 C 119.868 68.2628 119.817 68.3499 119.767 68.4359 C 119.817 68.335 119.87 68.2353 119.92 68.1344 Z M 119.698 68.6892 C 119.461 69.1866 119.24 69.6979 118.937 70.1586 C 118.719 70.4647 118.504 70.773 118.287 71.0802 C 118.791 70.3042 119.255 69.5007 119.698 68.6892 Z M 108.112 81.2825 C 108.364 80.9169 108.611 80.5455 108.903 80.2097 C 108.688 80.7507 108.41 81.2676 108.241 81.8258 C 108.383 80.4848 107.914 83.2815 107.648 83.8099 C 107.703 83.4855 107.756 83.1543 107.8 82.8299 C 107.716 83.1657 107.662 83.5245 107.583 83.8684 C 107.607 83.3125 107.637 82.7543 107.656 82.2006 C 107.65 81.8304 107.925 81.5771 108.112 81.2825 Z M 106.969 83.5176 C 107.019 83.301 107.096 83.0901 107.19 82.8884 C 107.088 83.4065 106.976 83.9222 106.897 84.4449 C 106.902 84.1343 106.924 83.8237 106.969 83.5176 Z M 106.939 86.4806 C 106.918 86.3201 106.902 86.1585 106.894 85.9957 C 106.848 85.3401 106.9 84.689 107.031 84.046 C 107.031 84.0495 107.03 84.0518 107.03 84.0552 C 107.198 83.3549 107.204 82.6053 107.633 82.0001 C 107.61 82.1342 107.587 82.2671 107.564 82.4012 C 107.564 82.4001 107.566 82.3989 107.566 82.3978 C 107.514 82.6649 107.465 82.9319 107.417 83.2001 C 107.418 83.1967 107.418 83.1932 107.42 83.1898 C 107.399 83.2941 107.38 83.4007 107.36 83.5062 C 107.36 83.5062 107.36 83.5062 107.36 83.505 C 107.359 83.5085 107.359 83.5131 107.358 83.5176 C 107.358 83.5165 107.358 83.5165 107.358 83.5153 C 107.176 84.4483 107.046 85.3917 106.951 86.3384 C 106.921 86.0748 106.948 86.3338 106.939 86.4806 Z M 106.963 86.8015 C 106.961 86.7877 106.96 86.7752 106.96 86.7614 C 106.961 86.7545 106.963 86.7488 106.964 86.7419 C 106.964 86.7625 106.968 86.7832 106.963 86.8015 Z M 106.98 86.6376 C 107.135 85.1854 107.433 83.7526 107.642 82.3084 C 107.549 83.0901 107.562 83.8901 107.41 84.6627 C 107.554 83.3021 107.419 84.1996 107.318 85.0203 C 107.269 85.3515 107.116 85.9545 107.044 86.3809 C 107.044 86.3797 107.044 86.3797 107.044 86.3786 C 107.025 86.4829 107.005 86.586 106.986 86.6903 C 106.983 86.6708 106.981 86.6548 106.98 86.6376 Z M 106.99 87.1924 C 107.014 87.5087 107.02 87.8296 107.025 88.146 C 107.025 88.1437 107.025 88.1403 107.025 88.138 C 107.025 88.2423 107.025 88.3477 107.026 88.4532 C 107.019 88.4601 107.016 88.4704 107.012 88.4784 C 106.978 88.0497 106.991 87.6199 106.99 87.1924 Z M 107.039 91.0631 C 107.029 91.0665 107.02 91.0723 107.013 91.0791 C 107.035 90.9943 107.037 90.9049 107.043 90.8178 C 107.049 90.9003 107.037 90.9817 107.039 91.0631 Z M 107.1 88.3798 C 107.09 87.9076 107.059 87.4342 107.011 86.9642 C 107.082 86.6296 107.146 86.2937 107.218 85.9602 C 107.147 86.7648 107.129 87.5729 107.1 88.3798 Z M 107.39 93.2111 C 107.395 93.2351 107.399 93.2592 107.404 93.2821 C 107.394 93.2592 107.392 93.2351 107.39 93.2111 Z M 107.28 87.9145 C 107.279 87.9145 107.278 87.9145 107.277 87.9145 C 107.329 87.0617 107.288 86.2032 107.349 85.3516 C 107.379 85.2083 107.408 85.065 107.437 84.9217 C 107.343 85.9166 107.37 86.923 107.28 87.9145 Z M 107.443 93.3498 C 107.452 93.3933 107.46 93.438 107.47 93.4816 C 107.453 93.4403 107.449 93.3945 107.443 93.3498 Z M 107.482 87.762 C 107.481 87.6669 107.481 87.5718 107.481 87.4778 C 107.477 87.3964 107.512 87.3196 107.527 87.2405 C 107.525 87.4147 107.504 87.589 107.482 87.762 Z M 107.563 88.483 C 107.563 88.4726 107.564 88.4635 107.564 88.4532 C 107.564 88.4635 107.567 88.4726 107.563 88.483 Z M 107.579 89.6063 C 107.58 89.5971 107.58 89.5879 107.582 89.5799 C 107.582 89.5891 107.583 89.5994 107.583 89.6086 C 107.582 89.6074 107.58 89.6063 107.579 89.6063 Z M 107.568 88.1575 C 107.607 87.785 107.571 87.4067 107.621 87.0353 C 107.643 86.8829 107.666 86.7304 107.688 86.5769 C 107.679 87.1064 107.613 87.6314 107.568 88.1575 Z M 107.595 89.4355 C 107.595 89.4343 107.595 89.4332 107.595 89.432 C 107.596 89.4492 107.598 89.4664 107.599 89.4836 C 107.598 89.4676 107.596 89.4515 107.595 89.4355 Z M 107.656 90.6619 C 107.647 90.5931 107.656 90.5221 107.655 90.4533 C 107.661 90.5221 107.656 90.592 107.656 90.6619 Z M 107.698 93.2753 C 107.69 93.2237 107.686 93.1721 107.692 93.1194 C 107.703 93.2088 107.715 93.2982 107.726 93.3876 C 107.717 93.3509 107.708 93.3131 107.698 93.2753 Z M 107.733 88.311 C 107.718 88.5701 107.703 88.8291 107.692 89.0882 C 107.693 88.8005 107.653 88.5013 107.739 88.2251 C 107.737 88.2537 107.735 88.2824 107.733 88.311 Z M 107.585 86.4978 C 107.568 86.1023 107.562 85.8857 107.56 85.7951 C 107.561 85.9648 107.555 86.5218 107.475 86.9734 C 107.525 85.9132 107.407 84.7991 107.725 83.779 C 107.882 83.2884 108.033 82.7978 108.186 82.3061 C 108.141 83.3801 107.913 84.4312 107.755 85.4914 C 107.747 84.5148 107.735 86.1447 107.585 86.4978 Z M 107.847 85.9017 C 107.817 86.0909 107.786 86.2811 107.757 86.4714 C 107.742 86.2754 107.805 86.0909 107.847 85.9017 Z M 107.862 86.7041 C 107.868 86.6594 107.876 86.6158 107.883 86.5711 C 107.846 86.9115 107.838 87.2554 107.756 87.589 C 107.783 87.2921 107.826 86.9987 107.862 86.7041 Z M 107.859 88.9988 C 107.86 88.9403 107.861 88.8807 107.862 88.8223 C 107.862 88.7879 107.865 88.7535 107.865 88.7191 C 107.861 88.8131 107.886 88.9105 107.859 88.9988 Z M 107.849 90.537 C 107.85 90.5175 107.843 90.4969 107.85 90.4785 C 107.85 90.4992 107.849 90.5175 107.849 90.537 Z M 107.844 90.4178 C 107.841 90.3444 107.838 90.2699 107.841 90.1966 C 107.838 90.1221 107.852 90.0498 107.864 89.9776 C 107.853 90.1232 107.868 90.2745 107.844 90.4178 Z M 107.851 89.3816 C 107.851 89.3415 107.852 89.3014 107.852 89.2624 C 107.853 89.2131 107.85 89.1638 107.874 89.1203 C 107.88 89.2085 107.867 89.2945 107.851 89.3816 Z M 107.875 94.5269 C 107.877 94.5281 107.88 94.5269 107.882 94.5281 C 107.888 94.5774 107.894 94.6266 107.901 94.6759 C 107.886 94.6278 107.882 94.5774 107.875 94.5269 Z M 107.907 91.7244 C 107.907 91.7176 107.906 91.7107 107.906 91.7038 L 107.906 91.7027 L 107.907 91.7038 C 107.907 91.7095 107.907 91.7164 107.907 91.7244 Z M 107.953 94.8421 C 107.947 94.8032 107.943 94.763 107.938 94.7229 C 107.939 94.7241 107.938 94.7252 107.939 94.7264 C 107.937 94.7011 107.935 94.6748 107.932 94.6496 C 107.951 94.7412 107.978 94.8341 107.982 94.9281 C 107.972 94.8994 107.962 94.8708 107.953 94.8421 Z M 107.908 88.8681 C 107.86 88.3947 107.902 87.9225 107.94 87.4491 C 107.964 87.3551 107.988 87.2623 108.014 87.1694 C 107.964 87.7299 108.102 88.334 107.908 88.8681 Z M 107.971 87.0812 C 107.975 86.9895 107.995 86.9001 108.017 86.8107 C 108.023 86.9047 108.007 86.994 107.971 87.0812 Z M 108.07 92.8603 C 108.066 92.9291 108.063 92.999 108.064 93.0678 C 108.055 92.9979 108.064 92.9291 108.07 92.8603 Z M 108.076 92.7595 C 108.076 92.756 108.076 92.7538 108.076 92.7503 C 108.076 92.7538 108.076 92.7572 108.076 92.7595 Z M 108.089 94.9957 C 108.093 95.0106 108.095 95.0244 108.099 95.0393 C 108.1 95.0473 108.101 95.0553 108.102 95.0622 C 108.097 95.0393 108.093 95.0175 108.089 94.9957 Z M 108.088 87.401 C 108.062 87.0582 108.085 87.6474 108.07 87.7907 C 108.064 87.5362 108.056 87.2806 108.049 87.0261 C 108.074 86.931 108.1 86.8347 108.126 86.7396 C 108.113 86.9597 108.099 87.1797 108.088 87.401 Z M 108.046 86.8565 C 108.045 86.8061 108.043 86.7568 108.041 86.7064 C 108.08 86.5344 108.12 86.3636 108.162 86.1929 C 108.15 86.4198 108.139 86.6445 108.046 86.8565 Z M 108.4 90.9886 C 108.402 90.9324 108.405 90.8763 108.407 90.8201 C 108.411 90.7949 108.416 90.7697 108.419 90.7433 C 108.411 90.8247 108.407 90.9072 108.4 90.9886 Z M 108.176 87.5637 C 108.123 87.2692 108.343 85.7264 108.211 86.3533 C 108.308 84.9916 108.854 83.6838 109.1 82.3451 C 108.805 83.3342 108.523 84.3417 108.25 85.3424 C 108.296 84.5962 108.188 85.8066 108.078 86.0702 C 108.181 85.339 108.175 84.5824 108.423 83.8821 C 108.423 83.8833 108.423 83.8844 108.422 83.8856 C 108.832 82.5846 109.38 81.3238 109.893 80.0664 C 109.33 81.2481 108.776 82.4482 108.359 83.6953 C 108.562 82.5399 108.83 81.3949 109.079 80.2521 C 108.874 80.9857 108.69 81.7422 108.51 82.4861 C 108.489 82.3359 108.12 84.5721 107.905 85.2048 C 108.251 83.8615 108.025 82.4207 108.571 81.1416 C 108.57 81.1427 108.57 81.1439 108.568 81.145 C 108.785 80.6968 108.854 80.1696 109.241 79.8303 C 109.231 79.8417 109.221 79.8544 109.21 79.8647 C 111.834 77.2708 114.623 74.8282 117.204 72.1794 C 117.332 72.051 117.453 71.9123 117.57 71.7725 C 117.027 72.6046 117.907 71.3186 118.166 71.0378 C 117.406 72.5679 112.51 77.735 115.461 74.6586 C 112.138 78.9248 109.999 84.171 108.65 89.3759 C 109.142 85.794 110.758 82.4413 111.915 79.0623 C 111.005 81.1782 110.171 83.3239 109.452 85.5143 C 109.581 85.096 109.7 84.6741 109.799 84.2477 L 109.799 84.2489 C 109.935 83.4408 110.577 82.0459 110.667 81.5932 L 110.667 81.592 C 110.401 82.2683 110.115 82.9377 109.864 83.6219 C 109.951 83.3629 110.026 83.1004 110.106 82.8379 C 110.041 83.1371 110.162 82.7153 110.186 82.5961 C 110.186 82.5972 110.185 82.5984 110.185 82.5995 C 110.426 81.8086 110.742 81.0338 111.064 80.2762 C 110.487 81.3525 110.142 82.5399 109.691 83.6712 C 109.852 83.0385 109.064 85.4031 108.838 85.8937 C 109.42 84.046 109.657 82.0539 110.492 80.3025 C 109.884 81.302 109.669 82.4849 109.332 83.5933 C 109.61 82.2992 108.64 86.1619 108.431 86.9104 C 108.731 85.2014 108.966 83.4752 109.386 81.7915 C 108.826 83.6735 108.552 85.6358 108.176 87.5637 Z M 109.49 85.1349 C 109.594 84.7452 109.718 84.3578 109.842 83.975 C 109.841 83.9807 109.84 83.9864 109.838 83.991 C 109.838 83.9899 109.837 83.9899 109.838 83.9887 C 109.727 84.3727 109.609 84.7544 109.49 85.1349 Z M 108.457 94.4513 C 108.458 94.3642 108.454 94.277 108.457 94.1899 C 108.468 94.0203 108.468 93.8507 108.491 93.6822 C 108.508 93.9401 108.474 94.1945 108.457 94.4513 Z M 108.494 94.3022 C 108.495 94.2541 108.497 94.206 108.5 94.159 C 108.5 94.1911 108.5 94.222 108.501 94.2541 C 108.497 94.2702 108.495 94.2862 108.494 94.3022 Z M 108.526 95.8634 C 108.509 95.7958 108.518 95.727 108.532 95.6594 C 108.535 95.6949 108.539 95.7293 108.542 95.7637 C 108.539 95.798 108.539 95.8313 108.526 95.8634 Z M 108.466 89.4836 C 108.479 89.1042 108.458 88.7271 108.613 88.3718 C 108.609 88.53 108.594 88.687 108.572 88.844 C 108.547 89.0584 108.5 89.2704 108.466 89.4836 Z M 121.68 79.7489 C 121.695 79.7283 121.71 79.7065 121.725 79.6859 C 121.707 79.7157 121.69 79.7443 121.674 79.7741 C 121.676 79.7661 121.679 79.7581 121.68 79.7489 Z M 110.151 99.5381 C 110.486 98.8435 110.942 98.2085 111.339 97.5472 C 111.358 97.5196 111.378 97.4921 111.397 97.4646 C 111.005 98.1684 110.618 98.8802 110.151 99.5381 Z M 110.917 98.5982 C 110.875 98.6636 110.832 98.7301 110.789 98.7965 C 110.805 98.769 110.821 98.7415 110.838 98.7151 C 110.865 98.6773 110.891 98.6372 110.917 98.5982 Z M 109.783 100.371 C 109.866 100.181 109.952 99.992 110.036 99.8017 C 110.095 99.7089 110.158 99.6161 110.224 99.5266 C 110.072 99.8063 109.944 100.097 109.783 100.371 Z M 111.019 98.8768 C 111.175 98.6762 111.329 98.4756 111.481 98.2727 C 111.183 98.7874 110.88 99.3008 110.463 99.7284 C 110.643 99.4395 110.841 99.1656 111.019 98.8768 Z M 119.17 86.7293 C 118.249 90.6803 116.571 94.5086 113.208 96.9821 C 113.127 97.052 113.047 97.1231 112.964 97.1919 C 114.476 95.4531 115.968 93.6627 117.096 91.6522 C 116.038 93.336 114.748 94.8444 113.535 96.4193 C 113.535 96.4205 113.534 96.4204 113.534 96.4216 C 113.534 96.4216 113.534 96.4204 113.535 96.4204 C 113.198 96.8445 112.869 97.287 112.448 97.6343 C 112.861 97.0772 113.266 96.5007 113.623 95.9138 C 112.939 96.8205 112.315 97.7936 111.523 98.6131 C 112.163 97.5965 114.824 93.7945 113.015 96.2474 C 113.307 95.7648 112.256 97.2996 112.057 97.6068 C 112.06 97.6033 112.063 97.5999 112.065 97.5953 C 111.812 97.9644 111.591 98.3495 111.33 98.7117 C 111.715 97.9759 112.219 97.2984 112.647 96.5958 C 112.369 97.0004 112.051 97.3878 111.787 97.8051 C 112.411 96.7093 111.696 97.9415 111.34 98.3541 C 111.773 97.5231 112.375 96.8079 112.882 96.025 C 112.879 96.0273 112.877 96.0319 112.875 96.0342 C 113.252 95.3912 113.726 94.8008 114.134 94.1853 C 113.742 94.7023 113.311 95.2009 112.958 95.7476 C 112.906 95.8313 112.85 95.9138 112.795 95.9952 C 112.49 96.425 112.177 96.8583 111.855 97.2778 C 113.134 95.3831 113.341 95.1551 111.817 97.1345 C 112.508 95.7981 111.96 96.8468 111.513 97.5231 C 111.644 97.2216 111.434 97.6687 111.334 97.7546 C 111.709 97.0852 112.108 96.4227 112.531 95.7866 C 113.867 93.8713 112.505 95.727 111.796 96.6038 C 113.525 93.5572 111.786 96.4239 110.947 97.8841 C 111.098 97.5678 111.241 97.248 111.406 96.9374 C 111.402 96.9465 111.397 96.9546 111.393 96.9626 C 112.931 93.6489 115.787 91.2396 117.575 88.0818 C 117.754 87.7907 117.934 87.4823 118.105 87.1809 C 117.785 87.7517 117.484 88.3317 117.147 88.8933 C 117.148 88.8899 117.15 88.8887 117.151 88.8853 C 115.717 91.0906 117.517 88.499 118.111 87.5798 C 117.652 88.4841 117.14 89.5616 118.018 88.0795 C 117.314 89.4538 118.642 87.0594 118.889 86.5126 C 118.687 87.041 118.498 87.5775 118.241 88.0818 C 118.695 87.4926 118.947 86.7155 119.298 86.0439 C 118.908 87.4468 118.096 89.1524 119.17 86.7293 Z M 111.142 98.3346 C 111.235 98.1627 111.307 97.9793 111.416 97.8142 C 111.547 97.6366 111.68 97.4589 111.813 97.2824 C 111.613 97.648 111.379 97.993 111.142 98.3346 Z M 111.518 97.3099 C 111.526 97.2927 111.534 97.2755 111.543 97.2583 C 111.581 97.2044 111.619 97.1506 111.656 97.0967 C 111.608 97.1666 111.563 97.2377 111.518 97.3099 Z M 111.661 96.9706 C 111.668 96.9603 111.675 96.9488 111.682 96.9385 C 111.679 96.9431 111.676 96.9488 111.674 96.9534 C 111.669 96.9592 111.664 96.9649 111.661 96.9706 Z M 111.732 96.8698 C 111.931 96.5305 112.188 96.2279 112.428 95.9161 C 112.347 96.0273 112.266 96.1373 112.186 96.2485 C 112.185 96.2474 112.184 96.2474 112.182 96.2496 C 112.038 96.4605 111.876 96.6611 111.732 96.8698 Z M 119.617 86.6663 C 119.617 86.6617 119.618 86.6571 119.618 86.6525 C 119.624 86.6456 119.63 86.6387 119.636 86.6319 C 119.629 86.6422 119.624 86.6548 119.617 86.6663 Z M 121.896 80.2246 C 121.876 80.3197 121.855 80.4149 121.836 80.51 C 121.839 80.4997 121.84 80.4894 121.843 80.479 C 121.805 80.6544 121.77 80.8321 121.734 81.0086 C 121.736 80.996 121.739 80.9822 121.742 80.9696 C 121.565 81.7227 121.339 82.462 121.132 83.207 C 120.912 83.889 120.624 84.5527 120.279 85.1796 C 120.28 85.1773 120.282 85.175 120.283 85.1739 C 120.276 85.1877 120.268 85.2014 120.261 85.2152 C 120.262 85.2129 120.263 85.2106 120.264 85.2071 C 120.152 85.4112 120.049 85.6198 119.947 85.8295 C 119.953 85.8181 119.957 85.8077 119.963 85.7963 C 119.862 85.9911 119.751 86.1803 119.641 86.3705 C 119.65 86.2937 119.657 86.2181 119.672 86.1413 C 119.669 86.1516 119.667 86.1619 119.665 86.1722 C 119.668 86.155 119.673 86.1378 119.676 86.1207 C 119.675 86.1252 119.675 86.1287 119.674 86.1333 C 119.887 85.4639 119.966 84.7567 120.208 84.101 C 120.208 84.1022 120.208 84.1022 120.208 84.1033 C 120.233 84.0151 120.268 83.9234 120.295 83.8397 C 120.479 83.4156 120.685 82.9823 120.675 82.5055 C 120.675 82.5067 120.675 82.5078 120.675 82.5078 C 120.723 82.3359 120.794 82.1708 120.85 82.0001 C 120.849 82.0035 120.848 82.0046 120.847 82.0081 C 120.881 81.9049 120.894 81.7972 120.936 81.6974 C 121.208 81.1129 121.462 80.5054 121.827 79.9564 C 121.454 80.9157 121.319 81.1736 121.854 80.0893 C 121.877 80.0721 121.885 80.0275 121.906 79.9988 C 121.828 80.3576 121.632 80.863 121.896 80.2246 Z M 121.789 79.8773 C 121.767 79.9059 121.746 79.9358 121.723 79.9633 C 121.793 79.8441 121.851 79.7168 121.921 79.5988 C 121.882 79.6939 121.836 79.7856 121.789 79.8773 Z M 121.994 79.7569 C 121.993 79.7604 121.992 79.7638 121.989 79.7673 C 121.996 79.7432 122.004 79.7191 122.012 79.6939 C 122.005 79.7145 122 79.7352 121.994 79.7569 Z M 123.051 77.5024 C 123.051 77.5001 123.051 77.4989 123.052 77.4966 C 123.064 77.4737 123.068 77.4473 123.075 77.4232 C 123.07 77.4508 123.063 77.4771 123.051 77.5024 Z" stroke-linecap="round" />
</g>
		<g transform="matrix(1 0 0 1 45.56 22.27)"  >
<path style="stroke: none; stroke-width: 1; stroke-dasharray: none; stroke-linecap: butt; stroke-dashoffset: 0; stroke-linejoin: miter; stroke-miterlimit: 4; fill: rgb(255,255,255); fill-rule: nonzero; opacity: 1;" vector-effect="non-scaling-stroke"  transform=" translate(-107.56, -85.77)" d="M 107.56 85.7939 C 107.559 85.723 107.56 85.7309 107.56 85.7939 L 107.56 85.7939 Z" stroke-linecap="round" />
</g>
		<g transform="matrix(1 0 0 1 49.15 26.19)"  >
<path style="stroke: none; stroke-width: 1; stroke-dasharray: none; stroke-linecap: butt; stroke-dashoffset: 0; stroke-linejoin: miter; stroke-miterlimit: 4; fill: rgb(255,255,255); fill-rule: nonzero; opacity: 1;" vector-effect="non-scaling-stroke"  transform=" translate(-111.15, -89.69)" d="M 111.143 89.692 C 111.144 89.6908 111.145 89.6885 111.147 89.6861 C 111.147 89.6849 111.148 89.6838 111.148 89.6826 C 111.145 89.6861 111.144 89.6897 111.143 89.692 Z" stroke-linecap="round" />
</g>
		<g transform="matrix(1 0 0 1 1.13 -24.21)"  >
<path style="stroke: none; stroke-width: 1; stroke-dasharray: none; stroke-linecap: butt; stroke-dashoffset: 0; stroke-linejoin: miter; stroke-miterlimit: 4; fill: rgb(255,255,255); fill-rule: nonzero; opacity: 1;" vector-effect="non-scaling-stroke"  transform=" translate(-63.13, -39.29)" d="M 59.7679 48.0393 C 59.8665 47.4963 58.8928 47.2014 57.0271 45.1216 C 56.3796 44.401 55.6201 43.4809 54.5615 41.3928 C 54.3951 41.0903 54.2575 40.7733 54.1503 40.4459 C 54.0757 40.2301 54.039 40.0035 54.0415 39.7755 C 54.0266 39.6439 54.0552 39.5111 54.1231 39.3968 C 54.3627 39.1035 55.3125 39.5174 55.9599 39.732 C 56.3405 39.861 57.18 39.9683 58.8588 40.1828 C 61.0037 40.4279 63.1732 40.3669 65.3005 40.0018 C 69.8172 39.1906 72.9249 36.9048 74.0717 36.0551 C 74.0717 36.0551 75.9239 34.6607 79.6146 30.8079 C 80.0227 30.3806 79.9291 30.4208 80.3046 30.0404 C 80.661 29.6798 80.9693 29.2761 81.2224 28.8387 C 81.2809 28.7421 81.2997 28.6269 81.2748 28.517 C 81.2513 28.4531 81.2134 28.3952 81.1646 28.3473 C 81.1154 28.2995 81.056 28.263 80.9913 28.2405 C 80.8212 28.1784 80.6308 28.2639 80.0446 28.6561 C 79.7322 28.8672 79.5621 28.9728 79.4739 29.0482 C 78.9861 29.4437 75.5843 31.7682 72.1841 33.2061 C 70.5356 33.9033 67.8782 34.9842 64.2487 35.1753 C 60.7008 35.3596 58.0126 34.5904 56.3151 34.0876 C 55.1437 33.7298 53.9976 33.296 52.8843 32.7888 C 52.8062 32.7519 52.4969 32.6112 52.0789 32.4033 C 51.6609 32.1955 50.6567 31.6911 49.4077 30.9336 C 48.8368 30.5867 48.5581 30.4023 48.4613 30.3286 C 47.9702 29.9934 47.5352 29.6398 47.5131 29.6214 C 47.209 29.3784 46.8946 29.1505 46.5973 28.9142 C 46.2574 28.646 46.1028 28.5321 45.8564 28.4935 C 45.7884 28.4835 45.4214 28.4265 45.1886 28.6376 C 45.1098 28.7252 45.0509 28.8284 45.0161 28.9403 C 44.9812 29.0522 44.971 29.1701 44.9864 29.2862 C 45.0883 32.4586 46.6856 36.5981 46.6856 36.5981 C 47.7884 39.4471 48.1197 40.342 48.8334 41.857 C 49.2208 42.6782 49.5505 43.3234 49.8427 43.8932 C 49.8427 43.8932 50.9183 45.9981 52.2455 48.2237 C 52.5972 48.8119 52.9251 49.313 53.0746 49.5191 C 53.1205 49.5878 53.2123 49.6867 53.3143 49.8543 C 53.3618 49.9314 53.3924 49.9884 53.4621 50.094 C 53.564 50.2481 53.615 50.3252 53.6813 50.3504 C 53.7476 50.3755 53.8274 50.3504 54.0041 50.29 C 54.2879 50.1895 54.4307 50.1392 54.4493 50.1308 C 54.9098 49.9163 55.406 49.7856 55.8852 49.613 C 58.0585 48.8354 59.6455 48.708 59.7679 48.0393 Z" stroke-linecap="round" />
</g>
		<g transform="matrix(1 0 0 1 1.13 -10.93)"  >
<path style="stroke: none; stroke-width: 1; stroke-dasharray: none; stroke-linecap: butt; stroke-dashoffset: 0; stroke-linejoin: miter; stroke-miterlimit: 4; fill: rgb(255,255,255); fill-rule: nonzero; opacity: 1;" vector-effect="non-scaling-stroke"  transform=" translate(-63.13, -52.57)" d="M 66.6171 43.8077 C 66.5136 44.3568 67.4852 44.6627 69.3352 46.7698 C 69.9769 47.4998 70.7297 48.4325 71.7744 50.5448 C 71.9383 50.8504 72.0738 51.1706 72.1787 51.5012 C 72.2519 51.7189 72.2873 51.9474 72.284 52.1771 C 72.2974 52.3096 72.2678 52.443 72.199 52.5573 C 71.9579 52.8513 71.0099 52.4288 70.3645 52.2007 C 69.9855 52.0672 69.1465 51.954 67.4767 51.7259 C 65.334 51.4643 63.1646 51.5116 61.0354 51.8661 C 56.5153 52.6552 53.3915 54.9381 52.2415 55.7864 C 52.2415 55.7864 50.373 57.1804 46.6648 61.0415 C 46.2555 61.4673 46.3489 61.4285 45.9701 61.8103 C 45.6108 62.1708 45.2997 62.5757 45.0443 63.0152 C 44.986 63.1127 44.966 63.2283 44.9883 63.3396 C 45.0114 63.4049 45.0489 63.4642 45.098 63.5133 C 45.147 63.5624 45.2065 63.6 45.272 63.6235 C 45.4418 63.6877 45.6321 63.6015 46.2215 63.2112 C 46.5391 63 46.6988 62.8952 46.794 62.8191 C 47.2849 62.4237 50.7008 60.1037 54.11 58.6759 C 55.7611 57.983 58.4246 56.9101 62.0546 56.7428 C 65.5997 56.5738 68.2835 57.3731 69.9789 57.8901 C 71.1486 58.2595 72.2926 58.7055 73.4032 59.225 C 73.4813 59.2605 73.7871 59.4058 74.2052 59.6188 C 74.6228 59.8317 75.6233 60.3453 76.8649 61.1176 C 77.4342 61.4707 77.7027 61.66 77.808 61.7343 C 78.2952 62.0723 78.7267 62.4356 78.7507 62.4541 C 79.0496 62.6992 79.3619 62.9324 79.6661 63.1723 C 80.0057 63.4444 80.157 63.561 80.4051 63.6015 C 80.4714 63.6116 80.8382 63.6725 81.0708 63.4613 C 81.1505 63.3733 81.2103 63.2695 81.2465 63.1567 C 81.2823 63.044 81.2937 62.9248 81.2798 62.8073 C 81.1985 59.6103 79.6271 55.4248 79.6271 55.4248 C 78.5433 52.5387 78.2187 51.6397 77.514 50.1071 C 77.1333 49.2774 76.8092 48.6252 76.5204 48.0473 C 76.5204 48.0473 75.4586 45.9199 74.1422 43.6658 C 73.8026 43.071 73.4626 42.564 73.3219 42.3545 C 73.2759 42.2852 73.1856 42.1855 73.084 42.0165 C 73.038 41.9388 73.0075 41.8797 72.9396 41.7732 C 72.8391 41.6178 72.7867 41.54 72.722 41.5147 C 72.6574 41.4893 72.5744 41.5147 72.3975 41.5722 C 72.1124 41.6718 71.9713 41.7225 71.9526 41.731 C 71.4906 41.9439 70.9928 42.0689 70.5137 42.2379 C 68.3294 43.0236 66.7429 43.1352 66.6171 43.8077 Z" stroke-linecap="round" />
</g>
		<g transform="matrix(1 0 0 1 -0.2 25.82)"  >
<path style="stroke: none; stroke-width: 1; stroke-dasharray: none; stroke-linecap: butt; stroke-dashoffset: 0; stroke-linejoin: miter; stroke-miterlimit: 4; fill: rgb(255,255,255); fill-rule: nonzero; opacity: 1;" vector-effect="non-scaling-stroke"  transform=" translate(-61.8, -89.32)" d="M 41.0818 90.7532 L 41.111 87.8345 C 41.111 85.5516 40.9991 84.2608 40.7754 83.9622 C 40.6684 83.8273 40.6149 83.7358 40.6149 83.6876 C 40.6149 83.6298 40.6781 83.5672 40.8046 83.4998 C 40.9407 83.4227 41.1985 83.3409 41.5778 83.2542 C 41.9572 83.1675 42.2927 83.1241 42.5845 83.1241 C 42.8763 83.1241 43.0222 83.1916 43.0222 83.3264 L 42.993 83.5143 C 42.8763 84.5546 42.818 85.5708 42.818 86.563 C 42.818 87.5552 42.8471 88.6629 42.9055 89.8862 C 42.9639 91.1096 42.993 92.0102 42.993 92.5882 C 42.993 93.3684 42.6867 94.0379 42.0739 94.5966 C 41.4708 95.1649 40.7511 95.4732 39.9146 95.5213 C 39.7492 95.5021 39.6666 95.4443 39.6666 95.348 C 39.6666 95.2805 39.6909 95.2275 39.7395 95.189 C 39.7784 95.1505 39.827 95.1023 39.8854 95.0445 C 39.9438 94.9867 40.0508 94.8374 40.2064 94.5966 C 40.362 94.3558 40.4982 94.0813 40.6149 93.773 C 40.7316 93.4744 40.8386 93.0554 40.9359 92.516 C 41.0331 91.9765 41.0818 91.3889 41.0818 90.7532 Z M 45.416 89.7562 L 45.4306 90.1174 C 45.4306 90.1752 45.4695 90.2041 45.5473 90.2041 C 45.8585 90.1752 46.1309 90.0982 46.3643 89.9729 C 46.5978 89.8381 46.7728 89.6888 46.8895 89.525 C 47.123 89.1686 47.2494 88.8604 47.2689 88.6003 L 47.2835 88.4269 C 47.2835 87.9067 47.0744 87.6467 46.6561 87.6467 C 46.3449 87.6467 46.092 87.7815 45.8974 88.0512 C 45.5765 88.4751 45.416 89.0434 45.416 89.7562 Z M 48.5966 91.6779 C 48.5966 92.044 48.5187 92.3666 48.3631 92.646 C 48.2172 92.9157 48.047 93.118 47.8525 93.2529 C 47.6677 93.3781 47.4488 93.4792 47.1959 93.5563 C 46.875 93.6526 46.5686 93.7008 46.2768 93.7008 C 45.4597 93.7008 44.8567 93.3973 44.4676 92.7905 C 44.0786 92.1836 43.884 91.413 43.884 90.4787 C 43.884 89.5347 44.1223 88.6966 44.5989 87.9645 C 45.0853 87.2324 45.8099 86.8664 46.7728 86.8664 C 47.6482 86.8664 48.2415 87.1698 48.5528 87.7767 C 48.6792 88.0079 48.7425 88.2294 48.7425 88.4413 C 48.7425 88.6436 48.7327 88.8074 48.7133 88.9326 C 48.6938 89.0482 48.6257 89.2264 48.509 89.4672 C 48.3923 89.708 48.2367 89.9248 48.0421 90.1174 C 47.8476 90.3101 47.5412 90.4931 47.123 90.6665 C 46.7047 90.8399 46.2136 90.9555 45.6494 91.0133 C 45.5716 91.0133 45.5327 91.047 45.5327 91.1144 C 45.5327 91.2011 45.5619 91.3311 45.6202 91.5045 C 45.6883 91.6683 45.7613 91.808 45.8391 91.9235 C 46.0531 92.1933 46.3692 92.3281 46.7874 92.3281 C 47.2057 92.3281 47.5607 92.1933 47.8525 91.9235 C 48.0081 91.7791 48.1345 91.6009 48.2318 91.3889 C 48.2707 91.3119 48.3194 91.2733 48.3777 91.2733 C 48.4458 91.2733 48.4993 91.3263 48.5382 91.4323 C 48.5771 91.5382 48.5966 91.6201 48.5966 91.6779 Z M 54.7849 93.7152 C 54.6877 93.7826 54.6148 93.8164 54.5662 93.8164 C 54.4592 93.8164 54.3863 93.773 54.3473 93.6863 C 54.0555 93.1084 53.8124 92.3281 53.6179 91.3456 C 53.6081 91.3071 53.5935 91.2878 53.5741 91.2878 L 53.4865 91.3456 C 53.2239 91.808 52.9175 92.2366 52.5674 92.6315 C 52.227 93.0265 51.9498 93.3058 51.7358 93.4696 L 51.4148 93.7152 C 51.3175 93.8019 51.2397 93.8453 51.1814 93.8453 C 51.0744 93.8453 51.0014 93.7971 50.9625 93.7008 C 50.7485 93.2962 50.5005 92.5111 50.2184 91.3456 L 50.0871 90.7532 C 49.9023 89.9055 49.7126 89.2264 49.5181 88.7159 C 49.3333 88.2054 49.1923 87.9067 49.095 87.82 L 48.9491 87.69 C 48.8616 87.6611 48.8178 87.6129 48.8178 87.5455 C 48.8178 87.4107 49.0172 87.2662 49.416 87.112 C 49.8245 86.9579 50.1406 86.8809 50.3643 86.8809 C 50.588 86.8809 50.7339 86.9724 50.802 87.1554 C 50.8798 87.3288 50.9965 87.8249 51.1522 88.6436 C 51.5607 90.8013 51.8573 91.8802 52.0422 91.8802 C 52.1005 91.8802 52.1637 91.832 52.2318 91.7357 C 52.3096 91.6298 52.3972 91.5045 52.4944 91.36 C 52.6014 91.2156 52.7425 90.9651 52.9175 90.6087 C 53.0926 90.2523 53.1802 89.9392 53.1802 89.6695 C 53.1802 89.6213 53.1461 89.448 53.078 89.1493 C 53.0099 88.8411 52.9078 88.5473 52.7716 88.268 C 52.6452 87.979 52.5431 87.8152 52.4653 87.7767 C 52.2902 87.6804 52.2026 87.5985 52.2026 87.5311 C 52.2026 87.4155 52.402 87.2806 52.8008 87.1265 C 53.1996 86.9627 53.5595 86.8809 53.8805 86.8809 C 54.0264 86.8809 54.1285 86.9676 54.1869 87.1409 C 54.3328 87.5937 54.5078 88.4076 54.712 89.5828 C 54.9746 91.0855 55.2178 91.8369 55.4415 91.8369 C 55.5193 91.8369 55.636 91.7309 55.7916 91.519 C 55.9472 91.2974 56.098 90.9796 56.2439 90.5653 C 56.3995 90.1511 56.4773 89.7996 56.4773 89.5106 C 56.4773 89.212 56.4628 88.9856 56.4336 88.8315 C 56.4141 88.6677 56.3314 88.4799 56.1855 88.268 C 56.0396 88.056 55.8743 87.9356 55.6895 87.9067 C 55.5047 87.8682 55.4123 87.8056 55.4123 87.7189 C 55.4123 87.584 55.6117 87.4107 56.0105 87.1987 C 56.419 86.9868 56.8372 86.8809 57.2652 86.8809 C 57.6737 86.8809 57.878 87.2854 57.878 88.0946 C 57.878 89.106 57.5764 90.1463 56.9734 91.2155 C 56.3703 92.2848 55.6409 93.118 54.7849 93.7152 Z M 59.5785 89.7562 L 59.5931 90.1174 C 59.5931 90.1752 59.632 90.2041 59.7098 90.2041 C 60.0211 90.1752 60.2934 90.0982 60.5268 89.9729 C 60.7603 89.8381 60.9354 89.6888 61.0521 89.525 C 61.2855 89.1686 61.412 88.8604 61.4314 88.6003 L 61.446 88.4269 C 61.446 87.9067 61.2369 87.6467 60.8186 87.6467 C 60.5074 87.6467 60.2545 87.7815 60.06 88.0512 C 59.739 88.4751 59.5785 89.0434 59.5785 89.7562 Z M 62.7591 91.6779 C 62.7591 92.044 62.6813 92.3666 62.5256 92.646 C 62.3797 92.9157 62.2095 93.118 62.015 93.2529 C 61.8302 93.3781 61.6113 93.4792 61.3585 93.5563 C 61.0375 93.6526 60.7311 93.7008 60.4393 93.7008 C 59.6223 93.7008 59.0192 93.3973 58.6302 92.7905 C 58.2411 92.1836 58.0466 91.413 58.0466 90.4787 C 58.0466 89.5347 58.2849 88.6966 58.7615 87.9645 C 59.2478 87.2324 59.9724 86.8664 60.9353 86.8664 C 61.8107 86.8664 62.4041 87.1698 62.7153 87.7767 C 62.8418 88.0079 62.905 88.2294 62.905 88.4413 C 62.905 88.6436 62.8953 88.8074 62.8758 88.9326 C 62.8563 89.0482 62.7883 89.2264 62.6715 89.4672 C 62.5548 89.708 62.3992 89.9248 62.2047 90.1174 C 62.0101 90.3101 61.7038 90.4931 61.2855 90.6665 C 60.8673 90.8399 60.3761 90.9555 59.8119 91.0133 C 59.7341 91.0133 59.6952 91.047 59.6952 91.1144 C 59.6952 91.2011 59.7244 91.3311 59.7828 91.5045 C 59.8508 91.6683 59.9238 91.808 60.0016 91.9235 C 60.2156 92.1933 60.5317 92.3281 60.9499 92.3281 C 61.3682 92.3281 61.7232 92.1933 62.015 91.9235 C 62.1706 91.7791 62.2971 91.6009 62.3943 91.3889 C 62.4332 91.3119 62.4819 91.2733 62.5402 91.2733 C 62.6083 91.2733 62.6618 91.3263 62.7007 91.4323 C 62.7396 91.5382 62.7591 91.6201 62.7591 91.6779 Z M 65.3909 85.1614 L 65.3034 90.4642 C 65.3034 92.121 65.3569 93.1132 65.4639 93.4407 C 65.4931 93.4985 65.5076 93.5563 65.5076 93.6141 C 65.5076 93.7297 65.3666 93.7875 65.0845 93.7875 C 64.8025 93.7875 64.4864 93.7152 64.1362 93.5707 C 63.7958 93.4359 63.6256 93.2577 63.6256 93.0361 C 63.8201 91.6875 63.9174 89.8862 63.9174 87.6322 L 63.859 85.4215 C 63.8395 85.1518 63.7812 84.9206 63.6839 84.728 C 63.5964 84.5353 63.5088 84.4101 63.4213 84.3523 L 63.3046 84.2801 C 63.2365 84.2415 63.2024 84.1982 63.2024 84.15 C 63.2024 84.0152 63.4116 83.8514 63.8298 83.6587 C 64.2578 83.4565 64.6712 83.3553 65.0699 83.3553 C 65.2256 83.3553 65.3131 83.4083 65.3326 83.5143 C 65.3715 83.7647 65.3909 84.3138 65.3909 85.1614 Z M 68.3547 85.1614 L 68.2672 90.4642 C 68.2672 92.121 68.3206 93.1132 68.4276 93.4407 C 68.4568 93.4985 68.4714 93.5563 68.4714 93.6141 C 68.4714 93.7297 68.3304 93.7875 68.0483 93.7875 C 67.7662 93.7875 67.4501 93.7152 67.1 93.5707 C 66.7595 93.4359 66.5893 93.2577 66.5893 93.0361 C 66.7839 91.6875 66.8811 89.8862 66.8811 87.6322 L 66.8228 85.4215 C 66.8033 85.1518 66.7449 84.9206 66.6477 84.728 C 66.5601 84.5353 66.4726 84.4101 66.3851 84.3523 L 66.2683 84.2801 C 66.2003 84.2415 66.1662 84.1982 66.1662 84.15 C 66.1662 84.0152 66.3753 83.8514 66.7936 83.6587 C 67.2215 83.4565 67.6349 83.3553 68.0337 83.3553 C 68.1893 83.3553 68.2769 83.4083 68.2963 83.5143 C 68.3352 83.7647 68.3547 84.3138 68.3547 85.1614 Z M 70.7345 89.7562 L 70.749 90.1174 C 70.749 90.1752 70.7879 90.2041 70.8658 90.2041 C 71.177 90.1752 71.4494 90.0982 71.6828 89.9729 C 71.9162 89.8381 72.0913 89.6888 72.208 89.525 C 72.4415 89.1686 72.5679 88.8604 72.5874 88.6003 L 72.602 88.4269 C 72.602 87.9067 72.3928 87.6467 71.9746 87.6467 C 71.6633 87.6467 71.4104 87.7815 71.2159 88.0512 C 70.8949 88.4751 70.7345 89.0434 70.7345 89.7562 Z M 73.915 91.6779 C 73.915 92.044 73.8372 92.3666 73.6816 92.646 C 73.5357 92.9157 73.3655 93.118 73.171 93.2529 C 72.9862 93.3781 72.7673 93.4792 72.5144 93.5563 C 72.1934 93.6526 71.8871 93.7008 71.5953 93.7008 C 70.7782 93.7008 70.1752 93.3973 69.7861 92.7905 C 69.3971 92.1836 69.2025 91.413 69.2025 90.4787 C 69.2025 89.5347 69.4408 88.6966 69.9174 87.9645 C 70.4038 87.2324 71.1284 86.8664 72.0913 86.8664 C 72.9667 86.8664 73.56 87.1698 73.8713 87.7767 C 73.9977 88.0079 74.0609 88.2294 74.0609 88.4413 C 74.0609 88.6436 74.0512 88.8074 74.0318 88.9326 C 74.0123 89.0482 73.9442 89.2264 73.8275 89.4672 C 73.7108 89.708 73.5552 89.9248 73.3606 90.1174 C 73.1661 90.3101 72.8597 90.4931 72.4415 90.6665 C 72.0232 90.8399 71.532 90.9555 70.9679 91.0133 C 70.8901 91.0133 70.8512 91.047 70.8512 91.1144 C 70.8512 91.2011 70.8804 91.3311 70.9387 91.5045 C 71.0068 91.6683 71.0798 91.808 71.1576 91.9235 C 71.3716 92.1933 71.6877 92.3281 72.1059 92.3281 C 72.5241 92.3281 72.8792 92.1933 73.171 91.9235 C 73.3266 91.7791 73.453 91.6009 73.5503 91.3889 C 73.5892 91.3119 73.6378 91.2733 73.6962 91.2733 C 73.7643 91.2733 73.8178 91.3263 73.8567 91.4323 C 73.8956 91.5382 73.915 91.6201 73.915 91.6779 Z M 79.0272 89.5539 L 79.0855 90.0596 C 79.0855 90.2426 78.9104 90.3342 78.5603 90.3342 C 77.8502 90.3342 77.4952 90.0693 77.4952 89.5395 C 77.4952 89.4142 77.5293 89.2409 77.5974 89.0193 C 77.6654 88.7978 77.6995 88.6051 77.6995 88.4413 C 77.6995 88.2776 77.6509 88.1379 77.5536 88.0223 C 77.4563 87.8971 77.3153 87.8345 77.1305 87.8345 C 76.9457 87.8345 76.7852 87.9019 76.649 88.0368 C 76.5226 88.162 76.4448 88.292 76.4156 88.4269 L 76.3572 88.6292 C 76.2989 88.9278 76.2697 89.4287 76.2697 90.1319 C 76.2697 90.8254 76.2794 91.3745 76.2989 91.7791 C 76.3183 92.174 76.3378 92.4485 76.3572 92.6026 C 76.3767 92.7471 76.3864 92.8338 76.3864 92.8627 C 76.3864 93.1036 76.2356 93.2962 75.9341 93.4407 C 75.6326 93.5948 75.3311 93.6719 75.0295 93.6719 C 74.728 93.6719 74.5773 93.6093 74.5773 93.484 L 74.6502 93.0361 C 74.7864 92.1981 74.8545 91.1048 74.8545 89.7562 C 74.8545 88.4076 74.8058 87.4925 74.7086 87.0109 C 74.7086 86.8953 74.8107 86.8375 75.015 86.8375 C 75.5402 86.8375 75.8903 87.0157 76.0654 87.3721 C 76.0751 87.4107 76.0897 87.4299 76.1092 87.4299 C 76.1384 87.4299 76.2065 87.3866 76.3134 87.2999 C 76.6344 87.0398 77.0138 86.9098 77.4515 86.9098 C 77.7238 86.9098 77.9961 86.9627 78.2685 87.0687 C 78.8229 87.2903 79.1001 87.7526 79.1001 88.4558 L 79.0272 89.5539 Z M 83.9423 91.4467 C 83.9423 91.8609 83.8596 92.2222 83.6943 92.5304 C 83.5387 92.8387 83.3587 93.065 83.1545 93.2095 C 82.9502 93.354 82.707 93.4696 82.425 93.5563 C 82.0554 93.6719 81.7198 93.7297 81.4183 93.7297 C 80.786 93.7297 80.2608 93.6093 79.8426 93.3684 C 79.4243 93.118 79.2152 92.7231 79.2152 92.1836 C 79.2152 91.8658 79.3027 91.6057 79.4778 91.4034 C 79.7502 91.1048 80.076 90.9555 80.4553 90.9555 C 80.5721 90.9555 80.6304 91.0085 80.6304 91.1144 C 80.6304 91.124 80.6061 91.2011 80.5575 91.3456 C 80.5186 91.4805 80.4991 91.6538 80.4991 91.8658 C 80.4991 92.0777 80.5818 92.2655 80.7471 92.4293 C 80.9222 92.593 81.1313 92.6749 81.3745 92.6749 C 81.6177 92.6749 81.8122 92.6364 81.9581 92.5593 C 82.104 92.4726 82.2061 92.3667 82.2645 92.2414 C 82.352 92.068 82.3958 91.9043 82.3958 91.7502 C 82.3958 91.4708 82.2548 91.23 81.9727 91.0277 C 81.6906 90.8254 81.3794 90.6665 81.0389 90.5509 C 80.6985 90.4353 80.3873 90.2427 80.1052 89.9729 C 79.8231 89.7032 79.6821 89.3661 79.6821 88.9615 C 79.6821 88.268 79.9009 87.7478 80.3386 87.401 C 80.786 87.0543 81.3891 86.8809 82.1478 86.8809 C 82.4785 86.8809 82.8238 86.929 83.1836 87.0254 C 83.5533 87.112 83.7381 87.2662 83.7381 87.4877 C 83.7381 87.6996 83.6992 87.8971 83.6213 88.0801 C 83.5533 88.2632 83.4657 88.3547 83.3587 88.3547 C 83.3004 88.3547 83.2615 88.3354 83.242 88.2969 C 83.2225 88.2487 83.1885 88.1957 83.1399 88.1379 C 83.0912 88.0801 82.9745 88.0079 82.7897 87.9212 C 82.6049 87.8249 82.4444 87.7767 82.3083 87.7767 C 82.1818 87.7767 82.0943 87.7815 82.0456 87.7911 C 82.0067 87.7911 81.9338 87.8056 81.8268 87.8345 C 81.7198 87.8538 81.6225 87.8875 81.535 87.9356 C 81.3113 88.0609 81.1994 88.2439 81.1994 88.4847 C 81.1994 88.6388 81.2335 88.7544 81.3016 88.8315 C 81.3696 88.8989 81.4231 88.9519 81.462 88.9904 C 81.501 89.0289 81.569 89.0771 81.6663 89.1349 C 81.7636 89.1831 81.8316 89.2168 81.8706 89.236 C 81.9095 89.2553 81.997 89.2987 82.1332 89.3661 C 82.2693 89.4239 82.3569 89.4624 82.3958 89.4817 C 83.4268 89.9633 83.9423 90.6183 83.9423 91.4467 Z" stroke-linecap="round" />
</g>
		<g transform="matrix(1 0 0 1 -22.5 6.51)"  >
<path style="stroke: none; stroke-width: 1; stroke-dasharray: none; stroke-linecap: butt; stroke-dashoffset: 0; stroke-linejoin: miter; stroke-miterlimit: 4; fill: rgb(255,255,255); fill-rule: nonzero; opacity: 1;" vector-effect="non-scaling-stroke"  transform=" translate(-39.5, -70.01)" d="M 39.4831 65.8419 C 38.4824 67.096 37.7604 68.35 37.3171 69.604 L 37.3361 69.604 C 39.0968 69.604 40.1038 69.6103 40.3572 69.623 C 40.6232 69.623 40.7688 69.6103 40.7942 69.585 C 40.8195 69.5597 40.8385 69.528 40.8512 69.49 C 40.6358 67.932 40.4648 66.8743 40.3382 66.3169 C 40.2115 65.7469 40.0848 65.4619 39.9581 65.4619 C 39.8315 65.4619 39.6731 65.5886 39.4831 65.8419 Z M 37.7921 74.7911 L 38.2101 74.7151 C 38.3368 74.7151 38.4001 74.7848 38.4001 74.9241 C 38.4001 75.3675 38.3115 75.7411 38.1341 76.0451 C 37.9568 76.3492 37.7351 76.5645 37.4691 76.6912 C 37.0384 76.9065 36.6711 77.0142 36.3671 77.0142 C 35.7844 77.0142 35.3474 76.7988 35.056 76.3681 C 34.7647 75.9248 34.619 75.2661 34.619 74.3921 C 34.619 73.5054 34.8597 72.3591 35.3411 70.953 L 34.239 70.953 C 34.0997 70.953 34.03 70.8834 34.03 70.744 C 34.03 70.6047 34.1377 70.383 34.353 70.079 C 34.5684 69.7623 34.7964 69.604 35.037 69.604 L 35.8921 69.604 C 36.7914 67.6026 37.8491 65.8736 39.0651 64.4169 C 39.3818 64.0369 39.7681 63.6822 40.2242 63.3529 C 40.6928 63.0235 41.0538 62.8589 41.3072 62.8589 C 41.5605 62.8589 41.7505 62.9729 41.8772 63.2009 C 42.2065 63.7329 42.5929 65.6773 43.0362 69.034 C 43.1882 70.478 43.4479 71.9727 43.8152 73.5181 C 44.1952 75.0508 44.5436 75.9438 44.8602 76.1971 C 44.9362 76.2478 44.9743 76.3111 44.9743 76.3871 C 44.9743 76.5771 44.7019 76.7545 44.1572 76.9192 C 43.6252 77.0838 43.2135 77.1662 42.9222 77.1662 C 42.6435 77.1662 42.4282 77.1282 42.2762 77.0522 C 42.1242 76.9888 42.0292 76.9192 41.9912 76.8432 C 41.7632 76.3491 41.5352 75.1711 41.3072 73.3091 L 41.1932 72.4161 C 41.1425 71.8207 41.0918 71.371 41.0412 71.067 L 40.9082 70.972 L 36.9371 70.953 C 36.7851 71.5991 36.7091 72.1627 36.7091 72.6441 C 36.7091 73.1254 36.7217 73.4801 36.7471 73.7081 C 36.7851 73.9234 36.8928 74.1578 37.0701 74.4111 C 37.2474 74.6644 37.4881 74.7911 37.7921 74.7911 Z" stroke-linecap="round" />
</g>
		<g transform="matrix(1 0 0 1 -13.33 11.8)"  >
<path style="stroke: none; stroke-width: 1; stroke-dasharray: none; stroke-linecap: butt; stroke-dashoffset: 0; stroke-linejoin: miter; stroke-miterlimit: 4; fill: rgb(255,255,255); fill-rule: nonzero; opacity: 1;" vector-effect="non-scaling-stroke"  transform=" translate(-48.67, -75.3)" d="M 46.6889 69.072 C 46.9676 68.7807 47.3349 68.54 47.7909 68.35 C 48.2469 68.1473 48.6839 68.046 49.1019 68.046 C 49.5199 68.046 49.9443 68.141 50.375 68.331 C 50.4256 68.331 50.4636 68.3183 50.489 68.293 C 50.8183 67.9636 51.2996 67.799 51.933 67.799 C 52.085 67.799 52.161 67.8686 52.161 68.008 C 52.161 68.0206 52.1483 68.0776 52.123 68.179 C 52.0977 68.2803 52.066 68.4323 52.028 68.635 C 51.99 68.825 51.9583 69.0593 51.933 69.338 C 51.8443 70.06 51.7937 70.858 51.781 71.7321 C 51.781 72.6061 51.781 73.4801 51.781 74.3541 L 51.838 78.3442 C 51.838 79.6236 51.5087 80.6876 50.85 81.5363 C 50.584 81.8783 50.1786 82.1759 49.6339 82.4293 C 49.1019 82.6826 48.4749 82.8093 47.7529 82.8093 C 47.5882 82.7079 47.5059 82.6066 47.5059 82.5053 C 47.5059 82.4039 47.5756 82.3216 47.7149 82.2583 C 48.5129 81.8909 49.0829 81.0169 49.4249 79.6362 C 49.7669 78.2682 49.938 76.1845 49.938 73.3851 L 49.9 70.725 L 49.843 69.433 C 49.843 69.319 49.6656 69.2367 49.3109 69.186 C 48.8549 69.186 48.4686 69.338 48.1519 69.642 C 47.8479 69.9333 47.6389 70.3197 47.5249 70.801 C 47.3222 71.5737 47.2209 72.2451 47.2209 72.8151 C 47.2209 73.3724 47.3096 73.8664 47.4869 74.2971 C 47.6769 74.7278 47.9999 74.9431 48.4559 74.9431 C 48.5826 74.9431 48.6966 74.9178 48.7979 74.8671 C 48.9119 74.8164 48.9879 74.7911 49.0259 74.7911 C 49.1526 74.7911 49.2159 74.9178 49.2159 75.1711 C 49.2159 75.4245 49.1969 75.6335 49.1589 75.7981 C 49.1209 75.9501 49.0449 76.1211 48.9309 76.3111 C 48.6776 76.7292 48.1836 76.9382 47.4489 76.9382 C 46.7142 76.9382 46.1885 76.6721 45.8719 76.1401 C 45.5425 75.5955 45.3525 75.1078 45.3019 74.6771 C 45.2259 74.0311 45.1879 73.6068 45.1879 73.4041 C 45.1879 73.2014 45.1879 73.0431 45.1879 72.9291 C 45.2005 72.8024 45.2322 72.5617 45.2829 72.2071 C 45.3462 71.8397 45.4222 71.4977 45.5109 71.181 C 45.6122 70.8517 45.7642 70.4907 45.9669 70.098 C 46.1695 69.6927 46.4102 69.3507 46.6889 69.072 Z" stroke-linecap="round" />
</g>
		<g transform="matrix(1 0 0 1 -5.69 9.06)"  >
<path style="stroke: none; stroke-width: 1; stroke-dasharray: none; stroke-linecap: butt; stroke-dashoffset: 0; stroke-linejoin: miter; stroke-miterlimit: 4; fill: rgb(255,255,255); fill-rule: nonzero; opacity: 1;" vector-effect="non-scaling-stroke"  transform=" translate(-56.31, -72.56)" d="M 59.37 71.029 L 59.332 73.4611 C 59.332 75.1458 59.5157 76.1591 59.883 76.5011 C 59.9337 76.5518 59.959 76.6088 59.959 76.6722 C 59.959 76.8622 59.5473 76.9572 58.724 76.9572 C 57.9133 76.9572 57.4826 76.7165 57.432 76.2351 C 57.4193 76.1211 57.413 75.8868 57.413 75.5321 L 57.489 72.4921 C 57.489 72.4034 57.4383 72.3591 57.337 72.3591 C 56.729 72.3591 56.1589 72.5301 55.6269 72.8721 C 55.0949 73.2141 54.8289 73.6511 54.8289 74.1831 C 54.8289 74.4618 54.9049 74.6961 55.0569 74.8861 C 55.2089 75.0761 55.3926 75.1711 55.6079 75.1711 C 55.8359 75.1711 56.0196 75.1268 56.1589 75.0381 C 56.3109 74.9494 56.3996 74.8988 56.425 74.8861 C 56.6403 74.9114 56.748 75.1395 56.748 75.5701 C 56.748 75.9881 56.5516 76.3301 56.1589 76.5962 C 55.7663 76.8495 55.3546 76.9762 54.9239 76.9762 C 54.4932 76.9762 54.1196 76.9002 53.8029 76.7482 C 53.4989 76.5962 53.2772 76.4251 53.1379 76.2351 C 52.9986 76.0451 52.8845 75.8298 52.7959 75.5891 C 52.7072 75.2978 52.6629 75.0445 52.6629 74.8291 C 52.6629 73.9424 52.9415 73.2331 53.4989 72.7011 C 54.0562 72.1691 54.7719 71.7891 55.6459 71.5611 C 56.7986 71.333 57.4003 71.124 57.451 70.934 C 57.489 70.7947 57.508 70.5604 57.508 70.231 C 57.508 69.5597 57.166 69.224 56.482 69.224 C 56.1906 69.224 55.9309 69.319 55.7029 69.509 C 55.4749 69.6863 55.3609 69.9144 55.3609 70.193 L 55.4749 70.649 C 55.4496 70.8644 55.2216 70.991 54.7909 71.029 L 54.5819 71.048 C 54.2019 71.048 53.8979 70.953 53.6699 70.763 C 53.4546 70.573 53.3469 70.3197 53.3469 70.003 C 53.3469 69.8003 53.4102 69.5787 53.5369 69.338 C 53.6762 69.0847 53.8472 68.882 54.0499 68.73 C 54.2526 68.578 54.5629 68.445 54.9809 68.331 C 55.4116 68.2043 55.8233 68.141 56.2159 68.141 C 56.6086 68.141 56.9126 68.1536 57.128 68.179 C 57.3433 68.2043 57.6346 68.2676 58.002 68.369 C 58.382 68.4576 58.6923 68.635 58.933 68.901 C 59.1863 69.167 59.3193 69.452 59.332 69.756 C 59.3573 70.0473 59.37 70.4717 59.37 71.029 Z" stroke-linecap="round" />
</g>
		<g transform="matrix(1 0 0 1 1.47 9.06)"  >
<path style="stroke: none; stroke-width: 1; stroke-dasharray: none; stroke-linecap: butt; stroke-dashoffset: 0; stroke-linejoin: miter; stroke-miterlimit: 4; fill: rgb(255,255,255); fill-rule: nonzero; opacity: 1;" vector-effect="non-scaling-stroke"  transform=" translate(-63.47, -72.56)" d="M 66.3152 71.637 L 66.3913 72.3021 C 66.3913 72.5427 66.1632 72.6631 65.7072 72.6631 C 64.7825 72.6631 64.3202 72.3147 64.3202 71.618 C 64.3202 71.4534 64.3645 71.2254 64.4532 70.934 C 64.5419 70.6427 64.5862 70.3894 64.5862 70.174 C 64.5862 69.9587 64.5229 69.775 64.3962 69.623 C 64.2695 69.4583 64.0859 69.376 63.8452 69.376 C 63.6045 69.376 63.3955 69.4647 63.2182 69.642 C 63.0535 69.8067 62.9522 69.9777 62.9142 70.155 L 62.8382 70.421 C 62.7622 70.8137 62.7242 71.4724 62.7242 72.3971 C 62.7242 73.3091 62.7368 74.0311 62.7622 74.5631 C 62.7875 75.0825 62.8128 75.4435 62.8382 75.6461 C 62.8635 75.8361 62.8762 75.9501 62.8762 75.9881 C 62.8762 76.3048 62.6798 76.5582 62.2872 76.7482 C 61.8945 76.9508 61.5018 77.0522 61.1091 77.0522 C 60.7165 77.0522 60.5201 76.9698 60.5201 76.8052 L 60.6151 76.2161 C 60.7925 75.1141 60.8811 73.6764 60.8811 71.9031 C 60.8811 70.1297 60.8178 68.9263 60.6911 68.293 C 60.6911 68.141 60.8241 68.065 61.0901 68.065 C 61.7742 68.065 62.2302 68.2993 62.4582 68.768 C 62.4708 68.8187 62.4898 68.844 62.5152 68.844 C 62.5532 68.844 62.6418 68.787 62.7812 68.673 C 63.1992 68.331 63.6932 68.16 64.2632 68.16 C 64.6179 68.16 64.9726 68.2296 65.3272 68.369 C 66.0492 68.6603 66.4102 69.2683 66.4102 70.193 L 66.3152 71.637 Z" stroke-linecap="round" />
</g>
		<g transform="matrix(1 0 0 1 10.41 9.2)"  >
<path style="stroke: none; stroke-width: 1; stroke-dasharray: none; stroke-linecap: butt; stroke-dashoffset: 0; stroke-linejoin: miter; stroke-miterlimit: 4; fill: rgb(255,255,255); fill-rule: nonzero; opacity: 1;" vector-effect="non-scaling-stroke"  transform=" translate(-72.41, -72.7)" d="M 74.2853 77.1092 C 74.1587 77.1978 74.0636 77.2422 74.0003 77.2422 C 73.861 77.2422 73.766 77.1852 73.7153 77.0712 C 73.3353 76.3111 73.0186 75.2851 72.7653 73.9931 C 72.7526 73.9424 72.7336 73.9171 72.7083 73.9171 L 72.5943 73.9931 C 72.2523 74.6011 71.8533 75.1648 71.3973 75.6841 C 70.9539 76.2035 70.5929 76.5708 70.3142 76.7861 L 69.8962 77.1092 C 69.7696 77.2232 69.6682 77.2802 69.5922 77.2802 C 69.4529 77.2802 69.3579 77.2168 69.3072 77.0902 C 69.0285 76.5582 68.7055 75.5258 68.3382 73.9931 L 68.1672 73.2141 C 67.9265 72.0994 67.6795 71.2064 67.4262 70.535 C 67.1855 69.8637 67.0018 69.471 66.8752 69.357 L 66.6852 69.186 C 66.5712 69.148 66.5142 69.0847 66.5142 68.996 C 66.5142 68.8187 66.7738 68.6287 67.2932 68.426 C 67.8252 68.2233 68.2369 68.122 68.5282 68.122 C 68.8195 68.122 69.0095 68.2423 69.0982 68.483 C 69.1995 68.711 69.3515 69.3633 69.5542 70.44 C 70.0862 73.2774 70.4726 74.6961 70.7132 74.6961 C 70.7892 74.6961 70.8716 74.6328 70.9603 74.5061 C 71.0616 74.3668 71.1756 74.2021 71.3023 74.0121 C 71.4416 73.8221 71.6253 73.4928 71.8533 73.0241 C 72.0813 72.5554 72.1953 72.1437 72.1953 71.789 C 72.1953 71.7257 72.1509 71.4977 72.0623 71.105 C 71.9736 70.6997 71.8406 70.3134 71.6633 69.946 C 71.4986 69.566 71.3656 69.3507 71.2643 69.3 C 71.0363 69.1733 70.9222 69.0657 70.9222 68.977 C 70.9222 68.825 71.1819 68.6477 71.7013 68.445 C 72.2206 68.2297 72.6893 68.122 73.1073 68.122 C 73.2973 68.122 73.4303 68.236 73.5063 68.464 C 73.6963 69.0593 73.9243 70.1297 74.1903 71.6751 C 74.5323 73.6511 74.849 74.6391 75.1403 74.6391 C 75.2417 74.6391 75.3937 74.4998 75.5963 74.2211 C 75.799 73.9298 75.9954 73.5118 76.1854 72.9671 C 76.388 72.4224 76.4894 71.9601 76.4894 71.58 C 76.4894 71.1874 76.4704 70.8897 76.4324 70.687 C 76.407 70.4717 76.2994 70.2247 76.1094 69.946 C 75.9193 69.6673 75.704 69.509 75.4633 69.471 C 75.2227 69.4203 75.1023 69.338 75.1023 69.224 C 75.1023 69.0467 75.362 68.8187 75.8813 68.54 C 76.4134 68.2613 76.958 68.122 77.5154 68.122 C 78.0474 68.122 78.3134 68.654 78.3134 69.718 C 78.3134 71.048 77.9207 72.4161 77.1354 73.8221 C 76.35 75.2281 75.4 76.3238 74.2853 77.1092 Z" stroke-linecap="round" />
</g>
		<g transform="matrix(1 0 0 1 20.01 9.06)"  >
<path style="stroke: none; stroke-width: 1; stroke-dasharray: none; stroke-linecap: butt; stroke-dashoffset: 0; stroke-linejoin: miter; stroke-miterlimit: 4; fill: rgb(255,255,255); fill-rule: nonzero; opacity: 1;" vector-effect="non-scaling-stroke"  transform=" translate(-82.01, -72.56)" d="M 85.0688 71.029 L 85.0308 73.4611 C 85.0308 75.1458 85.2145 76.1591 85.5818 76.5011 C 85.6325 76.5518 85.6578 76.6088 85.6578 76.6722 C 85.6578 76.8622 85.2461 76.9572 84.4228 76.9572 C 83.6121 76.9572 83.1814 76.7165 83.1307 76.2351 C 83.1181 76.1211 83.1117 75.8868 83.1117 75.5321 L 83.1877 72.4921 C 83.1877 72.4034 83.1371 72.3591 83.0357 72.3591 C 82.4277 72.3591 81.8577 72.5301 81.3257 72.8721 C 80.7937 73.2141 80.5277 73.6511 80.5277 74.1831 C 80.5277 74.4618 80.6037 74.6961 80.7557 74.8861 C 80.9077 75.0761 81.0914 75.1711 81.3067 75.1711 C 81.5347 75.1711 81.7184 75.1268 81.8577 75.0381 C 82.0097 74.9494 82.0984 74.8988 82.1237 74.8861 C 82.3391 74.9114 82.4467 75.1395 82.4467 75.5701 C 82.4467 75.9881 82.2504 76.3301 81.8577 76.5962 C 81.465 76.8495 81.0534 76.9762 80.6227 76.9762 C 80.192 76.9762 79.8183 76.9002 79.5017 76.7482 C 79.1977 76.5962 78.976 76.4251 78.8366 76.2351 C 78.6973 76.0451 78.5833 75.8298 78.4946 75.5891 C 78.406 75.2978 78.3616 75.0445 78.3616 74.8291 C 78.3616 73.9424 78.6403 73.2331 79.1977 72.7011 C 79.755 72.1691 80.4707 71.7891 81.3447 71.5611 C 82.4974 71.333 83.0991 71.124 83.1497 70.934 C 83.1877 70.7947 83.2067 70.5604 83.2067 70.231 C 83.2067 69.5597 82.8647 69.224 82.1807 69.224 C 81.8894 69.224 81.6297 69.319 81.4017 69.509 C 81.1737 69.6863 81.0597 69.9144 81.0597 70.193 L 81.1737 70.649 C 81.1484 70.8644 80.9204 70.991 80.4897 71.029 L 80.2807 71.048 C 79.9007 71.048 79.5967 70.953 79.3687 70.763 C 79.1533 70.573 79.0457 70.3197 79.0457 70.003 C 79.0457 69.8003 79.109 69.5787 79.2357 69.338 C 79.375 69.0847 79.546 68.882 79.7487 68.73 C 79.9513 68.578 80.2617 68.445 80.6797 68.331 C 81.1104 68.2043 81.522 68.141 81.9147 68.141 C 82.3074 68.141 82.6114 68.1536 82.8267 68.179 C 83.0421 68.2043 83.3334 68.2676 83.7007 68.369 C 84.0808 68.4576 84.3911 68.635 84.6318 68.901 C 84.8851 69.167 85.0181 69.452 85.0308 69.756 C 85.0561 70.0473 85.0688 70.4717 85.0688 71.029 Z" stroke-linecap="round" />
</g>
		<g transform="matrix(1 0 0 1 25.25 6.85)"  >
<path style="stroke: none; stroke-width: 1; stroke-dasharray: none; stroke-linecap: butt; stroke-dashoffset: 0; stroke-linejoin: miter; stroke-miterlimit: 4; fill: rgb(255,255,255); fill-rule: nonzero; opacity: 1;" vector-effect="non-scaling-stroke"  transform=" translate(-87.25, -70.35)" d="M 88.5984 65.8609 L 88.4844 72.8341 C 88.4844 75.0128 88.5541 76.3175 88.6934 76.7482 C 88.7314 76.8242 88.7504 76.9002 88.7504 76.9762 C 88.7504 77.1282 88.5667 77.2042 88.1994 77.2042 C 87.832 77.2042 87.4204 77.1092 86.9644 76.9192 C 86.521 76.7418 86.2994 76.5075 86.2994 76.2161 C 86.5527 74.4428 86.6794 72.0741 86.6794 69.11 L 86.6034 66.2029 C 86.578 65.8483 86.502 65.5443 86.3754 65.2909 C 86.2613 65.0376 86.1474 64.8729 86.0333 64.7969 L 85.8813 64.7019 C 85.7927 64.6512 85.7483 64.5942 85.7483 64.5309 C 85.7483 64.3536 86.0207 64.1382 86.5654 63.8849 C 87.1227 63.6189 87.661 63.4859 88.1804 63.4859 C 88.3831 63.4859 88.4971 63.5555 88.5224 63.6949 C 88.5731 64.0242 88.5984 64.7462 88.5984 65.8609 Z" stroke-linecap="round" />
</g>
</g>
</g>
</svg>